<?xml version="1.0" encoding="UTF-8"?>
<!DOCTYPE svg PUBLIC "-//W3C//DTD SVG 1.1//EN" "http://www.w3.org/Graphics/SVG/1.1/DTD/svg11.dtd">
<svg class="svg_theme" xmlns="http://www.w3.org/2000/svg" version="1.1" width="104px" height="104px"  style="shape-rendering:geometricPrecision; text-rendering:geometricPrecision; image-rendering:optimizeQuality; fill-rule:evenodd; clip-rule:evenodd" xmlns:xlink="http://www.w3.org/1999/xlink">
<g><path style="opacity:0.734" fill="#000000" d="M 49.5,-0.5 C 50.8333,-0.5 52.1667,-0.5 53.5,-0.5C 55.4611,1.96348 57.6278,4.29681 60,6.5C 60.49,7.79323 60.6567,9.12656 60.5,10.5C 57.7374,10.2562 55.5707,8.92286 54,6.5C 53.1694,12.8595 53.3361,19.1928 54.5,25.5C 63.2522,30.6266 72.0855,35.6266 81,40.5C 81.4995,46.4908 81.6662,52.4908 81.5,58.5C 80.1779,58.67 79.0113,58.3366 78,57.5C 77.6667,53.8333 77.3333,50.1667 77,46.5C 69.7452,51.2123 62.2452,55.5456 54.5,59.5C 53.5713,60.6888 53.238,62.0222 53.5,63.5C 62.1959,64.5324 67.8626,69.199 70.5,77.5C 72.677,77.4139 74.677,76.7472 76.5,75.5C 77.4933,70.8804 77.8266,66.2137 77.5,61.5C 78.8333,61.5 80.1667,61.5 81.5,61.5C 81.1744,65.8839 81.5078,70.2172 82.5,74.5C 87.7486,77.3738 92.9152,80.3738 98,83.5C 97.7932,81.2487 97.6265,78.9154 97.5,76.5C 98.8333,76.5 100.167,76.5 101.5,76.5C 101.721,79.0673 102.388,81.4006 103.5,83.5C 103.5,85.5 103.5,87.5 103.5,89.5C 99.4235,91.5236 95.0902,92.5236 90.5,92.5C 90.5482,89.3648 92.2148,87.6981 95.5,87.5C 90.5629,84.1144 85.3962,81.1144 80,78.5C 77.3844,79.6153 74.8844,80.9486 72.5,82.5C 71.6067,93.0406 66.2734,100.041 56.5,103.5C 53.1667,103.5 49.8333,103.5 46.5,103.5C 36.6965,100.016 31.3631,93.0162 30.5,82.5C 28.1156,80.9486 25.6156,79.6153 23,78.5C 17.769,81.1992 12.6024,84.0325 7.5,87C 8.8905,88.02 10.3905,88.8534 12,89.5C 12.4828,90.448 12.6495,91.448 12.5,92.5C 7.90984,92.5236 3.57651,91.5236 -0.5,89.5C -0.5,87.5 -0.5,85.5 -0.5,83.5C 0.611848,81.4006 1.27852,79.0673 1.5,76.5C 2.83333,76.5 4.16667,76.5 5.5,76.5C 5.37348,78.9154 5.20681,81.2487 5,83.5C 10.1714,80.2467 15.5048,77.2467 21,74.5C 21.3333,63.1667 21.6667,51.8333 22,40.5C 26.6986,37.733 31.5319,35.3997 36.5,33.5C 36.6567,34.8734 36.49,36.2068 36,37.5C 32.9113,38.9596 30.0779,40.793 27.5,43C 33.8333,46.5 40.1667,50 46.5,53.5C 48.6316,55.1174 50.9649,55.6174 53.5,55C 60.8333,51 68.1667,47 75.5,43C 67.9484,37.7237 59.9484,33.2237 51.5,29.5C 47.4867,32.007 43.1534,33.6736 38.5,34.5C 38.238,33.0222 38.5713,31.6888 39.5,30.5C 42.6612,29.0869 45.6612,27.4203 48.5,25.5C 49.6639,19.1928 49.8306,12.8595 49,6.5C 47.4293,8.92286 45.2626,10.2562 42.5,10.5C 42.3433,9.12656 42.51,7.79323 43,6.5C 45.3722,4.29681 47.5389,1.96348 49.5,-0.5 Z M 25.5,46.5 C 32.9772,51.0746 40.6439,55.4079 48.5,59.5C 49.4287,60.6888 49.762,62.0222 49.5,63.5C 40.8041,64.5324 35.1374,69.199 32.5,77.5C 30.323,77.4139 28.323,76.7472 26.5,75.5C 25.5016,65.8563 25.1682,56.1896 25.5,46.5 Z M 46.5,67.5 C 62.6334,67.1269 69.1334,74.7936 66,90.5C 57.3916,101.603 48.0583,102.269 38,92.5C 33.1727,81.4806 36.006,73.1473 46.5,67.5 Z M 55.5,80.5 C 56.5,80.5 57.5,80.5 58.5,80.5C 58.5,82.5 58.5,84.5 58.5,86.5C 57.5,86.5 56.5,86.5 55.5,86.5C 55.5,84.5 55.5,82.5 55.5,80.5 Z"/></g>
<g><path style="opacity:0.712" fill="#000000" d="M 40.5,76.5 C 43.7766,76.2161 46.9433,76.5495 50,77.5C 50.7666,81.5575 50.5999,85.5575 49.5,89.5C 46.2913,90.7874 43.1247,90.7874 40,89.5C 39.3828,88.5509 39.5494,87.7175 40.5,87C 42.5,86.6667 44.5,86.3333 46.5,86C 37.1667,84.3333 37.1667,82.6667 46.5,81C 44.5,80.6667 42.5,80.3333 40.5,80C 39.3157,78.8545 39.3157,77.6879 40.5,76.5 Z"/></g>
<g><path style="opacity:0.733" fill="#000000" d="M 52.5,76.5 C 58.992,74.7231 62.6587,77.0564 63.5,83.5C 62.3526,90.3192 58.5192,92.3192 52,89.5C 51.2316,85.0804 51.3982,80.7471 52.5,76.5 Z M 55.5,80.5 C 55.5,82.5 55.5,84.5 55.5,86.5C 56.5,86.5 57.5,86.5 58.5,86.5C 58.5,84.5 58.5,82.5 58.5,80.5C 57.5,80.5 56.5,80.5 55.5,80.5 Z"/></g>
</svg>
