<?xml version="1.0" encoding="UTF-8"?>
<!DOCTYPE svg PUBLIC "-//W3C//DTD SVG 1.1//EN" "http://www.w3.org/Graphics/SVG/1.1/DTD/svg11.dtd">
<svg xmlns="http://www.w3.org/2000/svg" version="1.1" width="104px" height="104px" style="shape-rendering:geometricPrecision; text-rendering:geometricPrecision; image-rendering:optimizeQuality; fill-rule:evenodd; clip-rule:evenodd" xmlns:xlink="http://www.w3.org/1999/xlink">
<g><path style="opacity:0.729" fill="#000000" d="M 42.5,-0.5 C 46.1667,-0.5 49.8333,-0.5 53.5,-0.5C 55.3548,1.03308 57.1881,2.69974 59,4.5C 60.2022,6.67747 60.7022,9.0108 60.5,11.5C 63.3743,10.6365 66.0409,9.3032 68.5,7.5C 74.4614,8.78386 75.9614,12.1172 73,17.5C 71.6871,18.5728 70.1871,19.2395 68.5,19.5C 66.0409,17.6968 63.3743,16.3635 60.5,15.5C 60.5,18.5 60.5,21.5 60.5,24.5C 64.8461,24.6657 69.1794,24.499 73.5,24C 75.1667,22.3333 76.8333,20.6667 78.5,19C 77.3875,11.7041 80.3875,9.37081 87.5,12C 90.3176,16.8904 88.9842,20.3904 83.5,22.5C 82.914,22.2907 82.414,21.9574 82,21.5C 76.4581,28.1469 69.2914,30.4802 60.5,28.5C 60.5,30.1667 60.5,31.8333 60.5,33.5C 66.5092,33.3338 72.5092,33.5005 78.5,34C 79.6853,35.353 81.0186,36.5197 82.5,37.5C 83.4287,38.6888 83.762,40.0222 83.5,41.5C 80.9783,41.8719 78.9783,41.0386 77.5,39C 71.8431,38.5006 66.1764,38.3339 60.5,38.5C 60.5,40.8333 60.5,43.1667 60.5,45.5C 63.2335,44.279 66.0669,43.279 69,42.5C 74.3926,43.292 75.8926,46.292 73.5,51.5C 72.3122,52.84 70.8122,53.5066 69,53.5C 66.0026,52.2902 63.1693,50.9568 60.5,49.5C 60.5,52.8333 60.5,56.1667 60.5,59.5C 65.8746,59.8282 71.2079,59.4948 76.5,58.5C 84.1942,54.3458 87.3608,56.6791 86,65.5C 81.9456,68.4871 78.4456,67.9871 75.5,64C 70.5111,63.5007 65.5111,63.3341 60.5,63.5C 60.5,66.8333 60.5,70.1667 60.5,73.5C 64.8839,73.8256 69.2172,73.4922 73.5,72.5C 75.4408,69.6658 78.1074,68.8325 81.5,70C 86.1538,75.2251 85.1538,78.7251 78.5,80.5C 76.3122,80.6927 74.6455,79.8594 73.5,78C 69.1794,77.501 64.8461,77.3343 60.5,77.5C 60.5,79.8333 60.5,82.1667 60.5,84.5C 63.8499,84.335 67.1832,84.5017 70.5,85C 73.3601,87.5541 76.6935,89.2207 80.5,90C 83.3428,93.6187 83.0095,96.952 79.5,100C 73.415,100.582 70.5817,97.7488 71,91.5C 68.1034,88.7691 64.6034,87.7691 60.5,88.5C 61.0954,94.9714 58.762,99.9714 53.5,103.5C 49.8333,103.5 46.1667,103.5 42.5,103.5C 40.2084,101.711 38.0418,99.7114 36,97.5C 28.3689,96.3682 23.8689,92.0349 22.5,84.5C 21.1667,84.5 19.8333,84.5 18.5,84.5C 18.5,83.1667 18.5,81.8333 18.5,80.5C 22.1687,80.6682 25.5021,79.6682 28.5,77.5C 29.7199,77.8869 30.3865,78.7202 30.5,80C 29.7082,81.9597 28.3749,83.4597 26.5,84.5C 30.2257,93.0669 36.059,94.7335 44,89.5C 45.1685,90.0085 46.0019,90.8419 46.5,92C 44.9825,93.6851 43.3159,95.1851 41.5,96.5C 46.2267,100.57 50.8934,100.403 55.5,96C 54.552,95.5172 53.552,95.3505 52.5,95.5C 52.5,94.1667 52.5,92.8333 52.5,91.5C 53.8333,91.5 55.1667,91.5 56.5,91.5C 56.5,88.1667 56.5,84.8333 56.5,81.5C 51.5708,80.3047 48.5708,82.1381 47.5,87C 46.552,87.4828 45.552,87.6495 44.5,87.5C 44.4871,79.5208 48.4871,76.1875 56.5,77.5C 56.5,70.8333 56.5,64.1667 56.5,57.5C 48.16,57.6664 39.8267,57.4997 31.5,57C 30.6634,55.9887 30.33,54.8221 30.5,53.5C 39.1667,53.5 47.8333,53.5 56.5,53.5C 56.5,45.1667 56.5,36.8333 56.5,28.5C 51.4889,28.6659 46.4889,28.4993 41.5,28C 36.7101,25.6072 35.5434,22.1072 38,17.5C 39.8554,19.4155 41.3554,21.5821 42.5,24C 47.1548,24.4992 51.8215,24.6658 56.5,24.5C 56.5,21.5 56.5,18.5 56.5,15.5C 55.1667,15.5 53.8333,15.5 52.5,15.5C 52.5,14.1667 52.5,12.8333 52.5,11.5C 53.8333,11.5 55.1667,11.5 56.5,11.5C 54.6276,3.73306 49.9609,1.56639 42.5,5C 42.0426,5.41395 41.7093,5.91395 41.5,6.5C 47.2634,9.85493 49.5967,14.6883 48.5,21C 47.552,21.4828 46.552,21.6495 45.5,21.5C 45.157,12.9861 40.8237,9.48614 32.5,11C 28.1049,13.4729 25.9382,17.3062 26,22.5C 17.6489,21.3356 12.8156,25.0022 11.5,33.5C 14.1873,33.3359 16.854,33.5026 19.5,34C 19.9574,34.414 20.2907,34.914 20.5,35.5C 16.2023,37.0009 12.0357,39.0009 8,41.5C 4.71313,45.9816 3.71313,50.9816 5,56.5C 6.30878,58.9757 8.14211,60.9757 10.5,62.5C 12.2461,60.1459 14.5794,59.1459 17.5,59.5C 15.3512,63.178 13.3512,67.0113 11.5,71C 12.8279,74.1237 13.8279,77.2904 14.5,80.5C 10.8561,80.2923 8.68945,78.2923 8,74.5C 7.23101,71.9009 7.39768,69.4009 8.5,67C 6.71398,66.2155 5.21398,65.0488 4,63.5C 1.87915,59.9469 0.37915,56.2803 -0.5,52.5C -0.5,51.8333 -0.5,51.1667 -0.5,50.5C 0.176597,44.3038 3.1766,39.4705 8.5,36C 6.80411,29.3748 8.80411,24.0414 14.5,20C 17.0627,18.9207 19.7294,18.4207 22.5,18.5C 23.9356,10.7323 28.6023,6.39899 36.5,5.5C 38.215,3.11825 40.215,1.11825 42.5,-0.5 Z M 68.5,11.5 C 70.6246,12.3676 70.7913,13.3676 69,14.5C 67.3167,13.8235 67.1501,12.8235 68.5,11.5 Z M 82.5,14.5 C 84.4646,14.9483 84.7979,15.9483 83.5,17.5C 81.4807,16.8671 81.1474,15.8671 82.5,14.5 Z M 67.5,46.5 C 70.5476,46.494 71.0476,47.494 69,49.5C 67.9614,48.7562 67.4614,47.7562 67.5,46.5 Z M 80.5,60.5 C 82.4646,60.9483 82.7979,61.9483 81.5,63.5C 79.4807,62.8671 79.1474,61.8671 80.5,60.5 Z M 77.5,73.5 C 80.6741,73.9522 81.0075,74.9522 78.5,76.5C 76.4807,75.8671 76.1474,74.8671 77.5,73.5 Z M 76.5,92.5 C 78.6246,93.3676 78.7913,94.3676 77,95.5C 75.3167,94.8235 75.1501,93.8235 76.5,92.5 Z"/></g>
<g><path style="opacity:0.661" fill="#000000" d="M 35.5,11.5 C 37.2517,11.4176 38.2517,12.2509 38.5,14C 37.303,15.5199 35.803,16.6866 34,17.5C 33.5172,18.448 33.3505,19.448 33.5,20.5C 32.1667,20.5 30.8333,20.5 29.5,20.5C 29.1529,15.8601 31.1529,12.8601 35.5,11.5 Z"/></g>
<g><path style="opacity:0.683" fill="#000000" d="M 19.5,25.5 C 30.9304,28.1969 33.2637,34.3636 26.5,44C 24.2462,45.1505 21.9129,45.4838 19.5,45C 18.6634,43.9887 18.33,42.8221 18.5,41.5C 22.6332,41.4353 25.2998,39.4353 26.5,35.5C 25.2804,31.6182 22.6137,29.6182 18.5,29.5C 18.4326,28.0413 18.7659,26.7079 19.5,25.5 Z"/></g>
<g><path style="opacity:0.714" fill="#000000" d="M 90.5,25.5 C 96.6659,25.8705 98.8326,28.8705 97,34.5C 94.3154,38.0185 91.3154,38.3518 88,35.5C 85.4887,31.2005 86.322,27.8671 90.5,25.5 Z M 91.5,29.5 C 93.6246,30.3676 93.7913,31.3676 92,32.5C 90.3167,31.8235 90.1501,30.8235 91.5,29.5 Z"/></g>
<g><path style="opacity:0.679" fill="#000000" d="M 37.5,35.5 C 38.8333,35.5 40.1667,35.5 41.5,35.5C 41.5186,44.1481 37.1852,48.4814 28.5,48.5C 28.5,47.1667 28.5,45.8333 28.5,44.5C 34.5153,44.4847 37.5153,41.4847 37.5,35.5 Z"/></g>
<g><path style="opacity:0.678" fill="#000000" d="M 45.5,35.5 C 54.1664,35.9936 56.4997,40.1603 52.5,48C 50.3225,49.2022 47.9892,49.7022 45.5,49.5C 45.3505,48.448 45.5172,47.448 46,46.5C 50.626,45.6151 51.4593,43.4484 48.5,40C 47.552,39.5172 46.552,39.3505 45.5,39.5C 45.5,38.1667 45.5,36.8333 45.5,35.5 Z"/></g>
<g><path style="opacity:0.713" fill="#000000" d="M 86.5,43.5 C 90.4634,45.4732 94.6301,47.1399 99,48.5C 100.678,56.4897 97.6783,59.1564 90,56.5C 88.908,53.9556 88.2414,51.2889 88,48.5C 85.4911,47.347 84.9911,45.6803 86.5,43.5 Z M 93.5,50.5 C 95.0481,50.8212 95.7148,51.8212 95.5,53.5C 92.7524,53.5983 92.0857,52.5983 93.5,50.5 Z"/></g>
<g><path style="opacity:0.669" fill="#000000" d="M 11.5,46.5 C 12.5,46.5 13.5,46.5 14.5,46.5C 15.5524,52.5434 19.2191,54.8767 25.5,53.5C 25.5,54.8333 25.5,56.1667 25.5,57.5C 17.7075,59.2772 12.7075,56.4439 10.5,49C 10.7432,48.0979 11.0766,47.2646 11.5,46.5 Z"/></g>
<g><path style="opacity:0.713" fill="#000000" d="M 22.5,64.5 C 28.1764,64.3339 33.8431,64.5006 39.5,65C 40.8333,66 40.8333,67 39.5,68C 34.1667,68.3333 28.8333,68.6667 23.5,69C 21.393,70.2635 20.393,72.0968 20.5,74.5C 18.3652,74.853 17.0319,74.0197 16.5,72C 17.2741,68.4046 19.2741,65.9046 22.5,64.5 Z"/></g>
<g><path style="opacity:0.658" fill="#000000" d="M 42.5,64.5 C 45.8333,64.5 49.1667,64.5 52.5,64.5C 52.5,65.8333 52.5,67.1667 52.5,68.5C 49.1667,68.5 45.8333,68.5 42.5,68.5C 42.5,67.1667 42.5,65.8333 42.5,64.5 Z"/></g>
<g><path style="opacity:0.707" fill="#000000" d="M 103.5,69.5 C 103.5,69.8333 103.5,70.1667 103.5,70.5C 101.741,75.5467 98.4078,77.0467 93.5,75C 90.2172,69.7332 91.5505,66.2332 97.5,64.5C 100.793,64.8048 102.793,66.4715 103.5,69.5 Z M 96.5,68.5 C 98.332,69.1405 98.6653,70.1405 97.5,71.5C 95.4807,70.8671 95.1474,69.8671 96.5,68.5 Z"/></g>
<g><path style="opacity:0.687" fill="#000000" d="M 30.5,71.5 C 38.4214,71.635 41.2547,75.635 39,83.5C 36.2376,87.4925 33.071,88.1591 29.5,85.5C 31.2202,84.0803 33.0535,82.747 35,81.5C 35.7975,79.7412 35.6309,78.0745 34.5,76.5C 32.9411,75.9264 31.4411,75.2598 30,74.5C 29.5304,73.4232 29.6971,72.4232 30.5,71.5 Z"/></g>
<g><path style="opacity:0.713" fill="#000000" d="M 88.5,80.5 C 96.2407,80.7381 98.2407,84.2381 94.5,91C 89.6189,92.6805 86.2856,91.1805 84.5,86.5C 84.937,83.775 86.2704,81.775 88.5,80.5 Z M 89.5,84.5 C 93.31,85.7542 93.31,86.7542 89.5,87.5C 89.5,86.5 89.5,85.5 89.5,84.5 Z"/></g>
</svg>
