<?xml version="1.0" encoding="UTF-8"?>
<!DOCTYPE svg PUBLIC "-//W3C//DTD SVG 1.1//EN" "http://www.w3.org/Graphics/SVG/1.1/DTD/svg11.dtd">
<svg xmlns="http://www.w3.org/2000/svg" version="1.1" width="104px" height="104px" style="shape-rendering:geometricPrecision; text-rendering:geometricPrecision; image-rendering:optimizeQuality; fill-rule:evenodd; clip-rule:evenodd" xmlns:xlink="http://www.w3.org/1999/xlink">
<g><path style="opacity:0.762" fill="#000000" d="M 17.5,-0.5 C 20.1667,-0.5 22.8333,-0.5 25.5,-0.5C 30.2905,1.38093 35.1238,3.38093 40,5.5C 40.8315,13.1883 40.6648,20.855 39.5,28.5C 33.7789,32.0272 27.7789,35.0272 21.5,37.5C 15.1342,34.9004 8.96751,31.9004 3,28.5C 2.50029,20.5069 2.33362,12.5069 2.5,4.5C 7.78409,3.40535 12.7841,1.73868 17.5,-0.5 Z M 19.5,3.5 C 23.5532,4.34954 27.5532,5.51621 31.5,7C 28.2852,8.7743 24.9518,10.2743 21.5,11.5C 17.8736,9.90228 14.2069,8.40228 10.5,7C 13.865,6.49469 16.865,5.32803 19.5,3.5 Z M 6.5,10.5 C 10.8295,11.7477 14.9961,13.4143 19,15.5C 19.8295,20.8643 19.6628,26.1977 18.5,31.5C 14.6733,29.754 11.0066,27.754 7.5,25.5C 6.50585,20.544 6.17252,15.544 6.5,10.5 Z M 34.5,10.5 C 35.8086,12.5706 36.4752,15.0706 36.5,18C 36.1667,20.5 35.8333,23 35.5,25.5C 31.5879,27.3725 27.7546,29.3725 24,31.5C 23.3333,26.1667 23.3333,20.8333 24,15.5C 27.6363,13.9301 31.1363,12.2634 34.5,10.5 Z"/></g>
<g><path style="opacity:0.758" fill="#000000" d="M 86.5,10.5 C 91.6991,11.0096 96.6991,12.3429 101.5,14.5C 102.833,20.1667 102.833,25.8333 101.5,31.5C 97.3942,33.6363 93.2275,35.6363 89,37.5C 84.7725,35.6363 80.6058,33.6363 76.5,31.5C 75.1667,25.8333 75.1667,20.1667 76.5,14.5C 80.0128,13.3355 83.3462,12.0022 86.5,10.5 Z M 88.5,14.5 C 93.6341,16.5737 93.3008,17.7404 87.5,18C 86.6919,17.6924 86.0253,17.1924 85.5,16.5C 86.6016,15.8243 87.6016,15.1577 88.5,14.5 Z M 79.5,19.5 C 81.6121,20.5941 83.7787,21.5941 86,22.5C 86.6667,25.5 86.6667,28.5 86,31.5C 80.3692,29.5652 78.2025,25.5652 79.5,19.5 Z M 97.5,19.5 C 99.8051,25.351 97.9718,29.351 92,31.5C 91.3333,28.5 91.3333,25.5 92,22.5C 93.8761,21.3913 95.7095,20.3913 97.5,19.5 Z"/></g>
<g><path style="opacity:0.74" fill="#000000" d="M 103.5,94.5 C 103.5,97.5 103.5,100.5 103.5,103.5C 68.8333,103.5 34.1667,103.5 -0.5,103.5C -0.5,100.5 -0.5,97.5 -0.5,94.5C 6.63519,86.5252 13.6352,78.3586 20.5,70C 25.0509,68.7852 29.7176,68.1186 34.5,68C 32.8333,67.1667 31.1667,66.3333 29.5,65.5C 28.5018,56.5246 28.1685,47.5246 28.5,38.5C 36.086,36.4715 43.586,34.1382 51,31.5C 58.8087,33.9364 66.6421,36.2698 74.5,38.5C 74.8315,47.5246 74.4982,56.5246 73.5,65.5C 71.8333,66.3333 70.1667,67.1667 68.5,68C 73.2824,68.1186 77.9491,68.7852 82.5,70C 89.3648,78.3586 96.3648,86.5252 103.5,94.5 Z M 48.5,36.5 C 54.4454,36.8694 60.1121,38.3694 65.5,41C 60.454,43.8712 55.1207,45.5379 49.5,46C 45.4189,44.5285 41.4189,42.8618 37.5,41C 41.307,39.5716 44.9736,38.0716 48.5,36.5 Z M 32.5,44.5 C 37.8754,46.2931 43.2087,48.2931 48.5,50.5C 49.6642,57.1418 49.8309,63.8085 49,70.5C 43.9117,67.7057 38.7451,65.039 33.5,62.5C 32.5041,56.5368 32.1707,50.5368 32.5,44.5 Z M 68.5,44.5 C 69.8164,47.0866 70.483,50.0866 70.5,53.5C 70.1667,56.5 69.8333,59.5 69.5,62.5C 64.2549,65.039 59.0883,67.7057 54,70.5C 53.1691,63.8085 53.3358,57.1418 54.5,50.5C 59.3496,48.6701 64.0163,46.6701 68.5,44.5 Z M 35.5,68.5 C 40.6368,71.8178 46.1368,74.4845 52,76.5C 56.2275,74.6363 60.3942,72.6363 64.5,70.5C 65.3857,71.325 65.719,72.325 65.5,73.5C 67.924,73.1924 70.2573,73.5258 72.5,74.5C 78.0223,80.8546 83.3556,87.3546 88.5,94C 63.8333,94.6667 39.1667,94.6667 14.5,94C 19.2567,87.1544 24.2567,80.4878 29.5,74C 31.4727,73.5045 33.4727,73.3379 35.5,73.5C 35.5,71.8333 35.5,70.1667 35.5,68.5 Z M 77.5,74.5 C 78.5417,73.2089 79.7083,73.2089 81,74.5C 86.1667,81 91.3333,87.5 96.5,94C 94.6133,94.1626 93.1133,93.3293 92,91.5C 87.6767,85.3476 82.8433,79.681 77.5,74.5 Z M 19.5,78.5 C 19.573,80.0269 18.9063,81.0269 17.5,81.5C 17.427,79.9731 18.0937,78.9731 19.5,78.5 Z M 16.5,82.5 C 14.9764,86.2022 12.8097,89.5355 10,92.5C 9.16274,94.0074 7.99608,94.5074 6.5,94C 9.69838,89.9739 13.0317,86.1405 16.5,82.5 Z"/></g>
<g><path style="opacity:0.778" fill="#000000" d="M 28.5,78.5 C 30.8333,78.5 33.1667,78.5 35.5,78.5C 35.5,79.8333 35.5,81.1667 35.5,82.5C 31.8065,82.1857 29.4732,83.8523 28.5,87.5C 43.8225,88.6662 59.1558,88.8329 74.5,88C 72.3257,84.6301 69.3257,82.7967 65.5,82.5C 65.5,81.1667 65.5,79.8333 65.5,78.5C 67.8568,78.3367 70.1902,78.5034 72.5,79C 74.2932,81.7953 76.4598,84.2953 79,86.5C 80.2893,88.0548 80.956,89.7215 81,91.5C 61.5733,92.6591 42.0733,92.8258 22.5,92C 22.0426,91.586 21.7093,91.086 21.5,90.5C 23.8884,86.4656 26.2217,82.4656 28.5,78.5 Z"/></g>
</svg>
