<?xml version="1.0" encoding="UTF-8"?>
<!DOCTYPE svg PUBLIC "-//W3C//DTD SVG 1.1//EN" "http://www.w3.org/Graphics/SVG/1.1/DTD/svg11.dtd">
<svg xmlns="http://www.w3.org/2000/svg" version="1.1" width="104px" height="104px" style="shape-rendering:geometricPrecision; text-rendering:geometricPrecision; image-rendering:optimizeQuality; fill-rule:evenodd; clip-rule:evenodd" xmlns:xlink="http://www.w3.org/1999/xlink">
<g><path style="opacity:0.725" fill="#000000" d="M 49.5,-0.5 C 50.8333,-0.5 52.1667,-0.5 53.5,-0.5C 57.0195,2.18438 60.8529,4.51771 65,6.5C 65.1717,11.2018 65.6717,15.8685 66.5,20.5C 68.8333,21.8333 71.1667,23.1667 73.5,24.5C 78.0345,20.3081 83.2012,16.9748 89,14.5C 93.3333,17.1667 97.6667,19.8333 102,22.5C 102.667,27.1667 102.667,31.8333 102,36.5C 98.3333,38.8333 94.6667,41.1667 91,43.5C 90.1705,48.8643 90.3372,54.1977 91.5,59.5C 95.2443,61.1207 98.7443,63.1207 102,65.5C 102.829,70.533 102.662,75.533 101.5,80.5C 97.326,83.0877 92.9926,85.421 88.5,87.5C 84.7557,85.8793 81.2557,83.8793 78,81.5C 74.2539,84.2899 70.4206,86.9566 66.5,89.5C 65.8333,92.1667 65.1667,94.8333 64.5,97.5C 60.7712,99.023 57.4379,101.023 54.5,103.5C 52.8333,103.5 51.1667,103.5 49.5,103.5C 45.6471,101.318 41.8137,98.9845 38,96.5C 37.6667,94.1667 37.3333,91.8333 37,89.5C 32.828,87.0814 28.828,84.4148 25,81.5C 21.7443,83.8793 18.2443,85.8793 14.5,87.5C 10.0074,85.421 5.67402,83.0877 1.5,80.5C 0.33772,75.533 0.171053,70.533 1,65.5C 4.66667,63.1667 8.33333,60.8333 12,58.5C 12.6667,53.5 12.6667,48.5 12,43.5C 8.33333,41.1667 4.66667,38.8333 1,36.5C 0.333333,31.8333 0.333333,27.1667 1,22.5C 5.33333,19.8333 9.66667,17.1667 14,14.5C 18.5806,16.8732 23.0806,19.3732 27.5,22C 28.1905,23.0674 28.6905,24.2341 29,25.5C 31.6667,23.5 34.3333,21.5 37,19.5C 37.3333,15.1667 37.6667,10.8333 38,6.5C 42.1471,4.51771 45.9805,2.18438 49.5,-0.5 Z M 50.5,3.5 C 60.1289,5.99948 60.4623,8.66614 51.5,11.5C 48.8929,10.8631 46.5596,9.69646 44.5,8C 46.6838,6.63658 48.6838,5.13658 50.5,3.5 Z M 41.5,11.5 C 44.0524,12.6935 46.5524,14.0268 49,15.5C 49.8141,17.9018 49.6474,20.2351 48.5,22.5C 46.417,21.0413 44.2503,19.7079 42,18.5C 41.5034,16.1902 41.3367,13.8568 41.5,11.5 Z M 60.5,11.5 C 61.6291,13.6282 61.7958,15.9615 61,18.5C 58.7497,19.7079 56.583,21.0413 54.5,22.5C 53.3526,20.2351 53.1859,17.9018 54,15.5C 56.3143,14.2668 58.4809,12.9334 60.5,11.5 Z M 13.5,19.5 C 23.1289,21.9995 23.4623,24.6661 14.5,27.5C 11.7154,26.9415 9.38211,25.6082 7.5,23.5C 9.56544,22.1433 11.5654,20.81 13.5,19.5 Z M 87.5,19.5 C 97.4643,21.7078 97.7977,24.3745 88.5,27.5C 86.2029,26.3515 83.8696,25.1848 81.5,24C 83.6838,22.6366 85.6838,21.1366 87.5,19.5 Z M 40.5,22.5 C 43.5525,23.7769 46.3859,25.4436 49,27.5C 49.6667,30.8333 49.6667,34.1667 49,37.5C 46.1917,39.8211 43.025,41.4878 39.5,42.5C 34.4907,40.6946 30.824,37.5279 28.5,33C 28.8333,31.8333 29.1667,30.6667 29.5,29.5C 33.4005,27.3919 37.0672,25.0585 40.5,22.5 Z M 61.5,22.5 C 67.1292,24.6163 71.4625,28.1163 74.5,33C 69.4145,42.8044 62.5812,44.3044 54,37.5C 53.3333,34.1667 53.3333,30.8333 54,27.5C 56.8239,26.1819 59.3239,24.5152 61.5,22.5 Z M 4.5,27.5 C 7.05243,28.6935 9.55243,30.0268 12,31.5C 12.6667,33.8333 12.6667,36.1667 12,38.5C 9.66667,37.1667 7.33333,35.8333 5,34.5C 4.50335,32.1902 4.33669,29.8568 4.5,27.5 Z M 22.5,27.5 C 23.7251,28.1522 24.3917,29.3189 24.5,31C 24.3333,32.1667 24.1667,33.3333 24,34.5C 21.6667,35.8333 19.3333,37.1667 17,38.5C 16.3333,36.1667 16.3333,33.8333 17,31.5C 18.8121,30.0229 20.6455,28.6896 22.5,27.5 Z M 78.5,27.5 C 85.1759,28.3992 87.6759,32.0659 86,38.5C 83.6667,37.1667 81.3333,35.8333 79,34.5C 78.5034,32.1902 78.3367,29.8568 78.5,27.5 Z M 96.5,27.5 C 97.7251,28.1522 98.3917,29.3189 98.5,31C 98.3333,32.1667 98.1667,33.3333 98,34.5C 95.7497,35.7079 93.583,37.0413 91.5,38.5C 90.3526,36.2351 90.1859,33.9018 91,31.5C 93.167,30.5119 95.0003,29.1786 96.5,27.5 Z M 24.5,38.5 C 28.1391,40.6552 31.8057,42.8218 35.5,45C 37.0454,46.8219 37.712,48.9886 37.5,51.5C 37.3333,53.1667 37.1667,54.8333 37,56.5C 33.6134,59.5535 29.9467,62.2202 26,64.5C 23.0844,62.9594 20.2511,61.2927 17.5,59.5C 16.1667,53.8333 16.1667,48.1667 17.5,42.5C 20.0591,41.3924 22.3924,40.0591 24.5,38.5 Z M 77.5,38.5 C 80.5525,39.7769 83.3859,41.4436 86,43.5C 86.8295,48.8643 86.6628,54.1977 85.5,59.5C 82.7489,61.2927 79.9156,62.9594 77,64.5C 73.3333,61.8333 69.6667,59.1667 66,56.5C 65.3333,53.1667 65.3333,49.8333 66,46.5C 69.8124,43.6877 73.6457,41.021 77.5,38.5 Z M 49.5,41.5 C 52.8785,41.8533 55.8785,43.1866 58.5,45.5C 56.3295,47.0862 53.9962,48.4196 51.5,49.5C 49.0038,48.4196 46.6705,47.0862 44.5,45.5C 46.21,44.1128 47.8767,42.7794 49.5,41.5 Z M 41.5,49.5 C 48.4125,50.1321 50.9125,53.7988 49,60.5C 46.7497,59.2921 44.583,57.9587 42.5,56.5C 41.5258,54.2573 41.1924,51.924 41.5,49.5 Z M 59.5,49.5 C 60.7251,50.1522 61.3917,51.3189 61.5,53C 61.1667,54.1667 60.8333,55.3333 60.5,56.5C 58.2011,57.6351 56.0344,58.9684 54,60.5C 53.1816,57.7728 53.3483,55.1062 54.5,52.5C 56.3964,51.7255 58.063,50.7255 59.5,49.5 Z M 39.5,59.5 C 42.3116,61.4081 45.3116,63.0748 48.5,64.5C 49.6586,68.122 49.8253,71.7887 49,75.5C 44.354,77.8996 40.1873,80.8996 36.5,84.5C 33.914,82.9574 31.414,81.2907 29,79.5C 28.3333,75.5 28.3333,71.5 29,67.5C 32.6584,64.9343 36.1584,62.2676 39.5,59.5 Z M 62.5,59.5 C 66.3916,62.0336 70.2249,64.7003 74,67.5C 74.6667,71.5 74.6667,75.5 74,79.5C 71.586,81.2907 69.086,82.9574 66.5,84.5C 62.8127,80.8996 58.646,77.8996 54,75.5C 53.1747,71.7887 53.3414,68.122 54.5,64.5C 57.568,63.3087 60.2346,61.642 62.5,59.5 Z M 13.5,62.5 C 23.1289,64.9995 23.4623,67.6661 14.5,70.5C 11.7213,69.6112 9.05465,68.4445 6.5,67C 8.89805,65.4758 11.2314,63.9758 13.5,62.5 Z M 87.5,62.5 C 90.7568,63.4617 93.7568,64.9617 96.5,67C 93.4463,69.208 90.1129,70.208 86.5,70C 84.8333,69 83.1667,68 81.5,67C 83.6838,65.6366 85.6838,64.1366 87.5,62.5 Z M 4.5,70.5 C 7.05243,71.6935 9.55243,73.0268 12,74.5C 12.8141,76.9018 12.6474,79.2351 11.5,81.5C 9.26719,80.2578 7.10052,78.9245 5,77.5C 4.50335,75.1902 4.33669,72.8568 4.5,70.5 Z M 23.5,70.5 C 24.6291,72.6282 24.7958,74.9615 24,77.5C 21.6667,78.8333 19.3333,80.1667 17,81.5C 16.3333,79.1667 16.3333,76.8333 17,74.5C 19.3143,73.2668 21.4809,71.9334 23.5,70.5 Z M 78.5,70.5 C 81.0524,71.6935 83.5524,73.0268 86,74.5C 86.6667,76.8333 86.6667,79.1667 86,81.5C 83.6667,80.1667 81.3333,78.8333 79,77.5C 78.5034,75.1902 78.3367,72.8568 78.5,70.5 Z M 97.5,70.5 C 98.6291,72.6282 98.7958,74.9615 98,77.5C 95.9656,79.0316 93.7989,80.3649 91.5,81.5C 90.3526,79.2351 90.1859,76.9018 91,74.5C 93.3143,73.2668 95.4809,71.9334 97.5,70.5 Z M 50.5,79.5 C 60.9368,82.9391 60.6035,85.4391 49.5,87C 47.9991,85.7485 46.3325,84.7485 44.5,84C 46.3893,82.2359 48.3893,80.7359 50.5,79.5 Z M 41.5,87.5 C 48.2077,88.3653 50.7077,92.032 49,98.5C 46.6667,97.1667 44.3333,95.8333 42,94.5C 41.5034,92.1902 41.3367,89.8568 41.5,87.5 Z M 59.5,87.5 C 60.7251,88.1522 61.3917,89.3189 61.5,91C 61.3333,92.1667 61.1667,93.3333 61,94.5C 58.6667,95.8333 56.3333,97.1667 54,98.5C 53.3333,96.1667 53.3333,93.8333 54,91.5C 56.0153,90.3034 57.8487,88.9701 59.5,87.5 Z"/></g>
</svg>
