<?xml version="1.0" encoding="UTF-8"?>
<!DOCTYPE svg PUBLIC "-//W3C//DTD SVG 1.1//EN" "http://www.w3.org/Graphics/SVG/1.1/DTD/svg11.dtd">
<svg xmlns="http://www.w3.org/2000/svg" version="1.1" width="104px" height="104px" style="shape-rendering:geometricPrecision; text-rendering:geometricPrecision; image-rendering:optimizeQuality; fill-rule:evenodd; clip-rule:evenodd" xmlns:xlink="http://www.w3.org/1999/xlink">
<g><path style="opacity:0.768" fill="#000000" d="M 41.5,-0.5 C 48.1667,-0.5 54.8333,-0.5 61.5,-0.5C 63.5611,2.72393 66.3944,5.05726 70,6.5C 71.2739,10.309 73.6072,13.309 77,15.5C 77.7517,18.8936 77.5851,22.227 76.5,25.5C 82.4725,26.3303 88.4725,26.8303 94.5,27C 97.3333,27.8333 99.1667,29.6667 100,32.5C 100.5,51.4971 100.667,70.4971 100.5,89.5C 101.5,89.5 102.5,89.5 103.5,89.5C 103.5,92.8333 103.5,96.1667 103.5,99.5C 102.5,101.167 101.167,102.5 99.5,103.5C 67.5,103.5 35.5,103.5 3.5,103.5C 1.83333,102.5 0.5,101.167 -0.5,99.5C -0.5,96.1667 -0.5,92.8333 -0.5,89.5C 0.5,89.5 1.5,89.5 2.5,89.5C 2.33338,70.4971 2.50005,51.4971 3,32.5C 3.83333,29.6667 5.66667,27.8333 8.5,27C 14.5275,26.8303 20.5275,26.3303 26.5,25.5C 24.1698,19.6498 25.5032,14.9831 30.5,11.5C 31.4274,9.88718 32.2607,8.22052 33,6.5C 36.5824,5.08499 39.4157,2.75165 41.5,-0.5 Z M 43.5,3.5 C 45.5,3.5 47.5,3.5 49.5,3.5C 49.6666,18.5037 49.4999,33.5037 49,48.5C 46.4556,51.0801 43.9556,51.0801 41.5,48.5C 43.6227,46.2546 44.6227,43.5879 44.5,40.5C 42.8008,40.3398 41.1341,40.5065 39.5,41C 40.3988,42.99 39.5655,44.1566 37,44.5C 35.8926,44.4148 34.8926,44.0814 34,43.5C 35.4235,39.3841 34.4235,36.0508 31,33.5C 29.8333,29.3333 31.3333,27.8333 35.5,29C 37.3019,32.0767 39.3019,32.2433 41.5,29.5C 39.0557,24.944 35.389,23.1107 30.5,24C 28.1014,18.4906 29.768,15.4906 35.5,15C 36.9663,15.6355 38.2997,16.4688 39.5,17.5C 41.2828,16.6518 41.7828,15.3185 41,13.5C 39.4207,11.9588 37.5873,10.7922 35.5,10C 36.9494,8.88298 38.6161,8.21631 40.5,8C 41.3862,6.38533 42.3862,4.88533 43.5,3.5 Z M 53.5,3.5 C 57.8108,2.53602 60.8108,4.03602 62.5,8C 64.3839,8.21631 66.0506,8.88298 67.5,10C 65.5516,10.9832 63.7183,12.1498 62,13.5C 61.3162,14.7839 61.4829,15.9505 62.5,17C 64.5029,16.5808 66.5029,15.7474 68.5,14.5C 73.7792,16.5671 74.7792,19.9005 71.5,24.5C 66.916,23.4815 63.5826,25.1482 61.5,29.5C 62.3279,30.4147 63.3279,31.0814 64.5,31.5C 66.1487,30.3523 67.6487,29.019 69,27.5C 73.5948,30.9392 73.4282,34.2725 68.5,37.5C 70.9226,43.262 69.2559,45.262 63.5,43.5C 62.3595,42.5745 62.3595,41.7412 63.5,41C 61.8659,40.5065 60.1992,40.3398 58.5,40.5C 58.3773,43.5879 59.3773,46.2546 61.5,48.5C 59.0444,51.0801 56.5444,51.0801 54,48.5C 53.5001,33.5037 53.3334,18.5037 53.5,3.5 Z M 9.5,30.5 C 15.1667,30.5 20.8333,30.5 26.5,30.5C 26.5,31.5 26.5,32.5 26.5,33.5C 20.8333,33.5 15.1667,33.5 9.5,33.5C 9.5,51.1667 9.5,68.8333 9.5,86.5C 37.5,86.5 65.5,86.5 93.5,86.5C 93.5,68.8333 93.5,51.1667 93.5,33.5C 87.8333,33.5 82.1667,33.5 76.5,33.5C 76.5,32.5 76.5,31.5 76.5,30.5C 82.1764,30.3339 87.8431,30.5006 93.5,31C 94.3333,31.8333 95.1667,32.6667 96,33.5C 96.4999,52.1637 96.6666,70.8304 96.5,89.5C 66.5,89.5 36.5,89.5 6.5,89.5C 6.33339,70.8304 6.50005,52.1637 7,33.5C 8.04499,32.6266 8.87833,31.6266 9.5,30.5 Z M 13.5,37.5 C 19.0214,37.0543 24.3548,37.5543 29.5,39C 28.4519,40.7562 28.4519,42.5896 29.5,44.5C 26.0803,47.6479 24.5803,51.6479 25,56.5C 21.0794,59.5223 20.5794,63.0223 23.5,67C 30.4902,69.0051 33.3236,66.5051 32,59.5C 28.275,54.897 28.9417,51.2304 34,48.5C 38.821,50.4266 40.6544,53.7599 39.5,58.5C 38.2519,59.0402 37.0852,59.7069 36,60.5C 36.0884,64.234 34.755,67.234 32,69.5C 30.4744,75.2971 32.6411,78.1305 38.5,78C 39.9308,77.5348 41.0975,76.7014 42,75.5C 42.2778,71.213 41.6111,67.213 40,63.5C 44.0404,61.9242 46.2071,58.9242 46.5,54.5C 47.1667,54.1667 47.8333,53.8333 48.5,53.5C 48.8333,56.1667 49.1667,58.8333 49.5,61.5C 49.3144,66.9748 48.1477,71.9748 46,76.5C 48.573,80.809 51.9063,81.4756 56,78.5C 58.2092,75.0116 57.7092,72.0116 54.5,69.5C 53.3372,64.1977 53.1705,58.8643 54,53.5C 55.0113,54.3366 56.1779,54.67 57.5,54.5C 56.8536,58.7526 58.5203,61.5859 62.5,63C 63.0585,63.7247 63.3918,64.5581 63.5,65.5C 57.6772,71.1719 58.5105,75.5053 66,78.5C 71.023,77.3922 72.6897,74.3922 71,69.5C 68.3866,67.1636 66.8866,64.1636 66.5,60.5C 63.2752,59.1866 62.1085,56.8533 63,53.5C 65.0361,51.7901 67.0361,50.1235 69,48.5C 71.8862,49.1944 73.3862,51.0277 73.5,54C 72.2548,56.7458 71.2548,59.5791 70.5,62.5C 70.3898,64.374 71.0564,65.874 72.5,67C 79.4902,69.0051 82.3236,66.5051 81,59.5C 77.9858,56.5534 76.6524,52.8867 77,48.5C 75.4443,47.4804 74.2776,46.147 73.5,44.5C 74.2234,42.2178 74.5567,39.8845 74.5,37.5C 79.5,37.5 84.5,37.5 89.5,37.5C 89.5,52.5 89.5,67.5 89.5,82.5C 64.1667,82.5 38.8333,82.5 13.5,82.5C 13.5,67.5 13.5,52.5 13.5,37.5 Z M 26.5,60.5 C 28.6246,61.3676 28.7913,62.3676 27,63.5C 25.3167,62.8235 25.1501,61.8235 26.5,60.5 Z M 75.5,60.5 C 77.6246,61.3676 77.7913,62.3676 76,63.5C 74.3167,62.8235 74.1501,61.8235 75.5,60.5 Z M 35.5,71.5 C 38.5476,71.494 39.0476,72.494 37,74.5C 35.9614,73.7562 35.4614,72.7562 35.5,71.5 Z M 64.5,71.5 C 67.5476,71.494 68.0476,72.494 66,74.5C 64.9614,73.7562 64.4614,72.7562 64.5,71.5 Z M 50.5,73.5 C 52.337,73.6395 52.6704,74.3061 51.5,75.5C 50.7025,75.0431 50.3691,74.3764 50.5,73.5 Z M 3.5,93.5 C 35.5,93.5 67.5,93.5 99.5,93.5C 100.363,97.1616 99.0296,99.3282 95.5,100C 66.1667,100.667 36.8333,100.667 7.5,100C 3.97041,99.3282 2.63708,97.1616 3.5,93.5 Z"/></g>
</svg>
