<?xml version="1.0" encoding="UTF-8"?>
<!DOCTYPE svg PUBLIC "-//W3C//DTD SVG 1.1//EN" "http://www.w3.org/Graphics/SVG/1.1/DTD/svg11.dtd">
<svg xmlns="http://www.w3.org/2000/svg" version="1.1" width="104px" height="104px" style="shape-rendering:geometricPrecision; text-rendering:geometricPrecision; image-rendering:optimizeQuality; fill-rule:evenodd; clip-rule:evenodd" xmlns:xlink="http://www.w3.org/1999/xlink">
<g><path style="opacity:0.742" fill="#000000" d="M 6.5,-0.5 C 10.5,-0.5 14.5,-0.5 18.5,-0.5C 25.6662,4.89465 27.3329,11.728 23.5,20C 26.5,23 29.5,26 32.5,29C 35.4751,28.0211 38.4751,26.6878 41.5,25C 44.1168,24.1785 46.7835,23.6785 49.5,23.5C 49.5,20.8333 49.5,18.1667 49.5,15.5C 45.1069,14.767 42.7736,12.1003 42.5,7.5C 43.1913,4.09525 44.8579,1.42858 47.5,-0.5C 50.1667,-0.5 52.8333,-0.5 55.5,-0.5C 60.157,2.83336 61.3237,7.1667 59,12.5C 57.7365,14.607 55.9032,15.607 53.5,15.5C 53.5,18.1667 53.5,20.8333 53.5,23.5C 56.2165,23.6785 58.8832,24.1785 61.5,25C 64.5249,26.6878 67.5249,28.0211 70.5,29C 73.5,26 76.5,23 79.5,20C 75.5607,11.6432 77.2274,4.80982 84.5,-0.5C 88.5,-0.5 92.5,-0.5 96.5,-0.5C 99.1667,1.5 101.5,3.83333 103.5,6.5C 103.5,10.1667 103.5,13.8333 103.5,17.5C 98.6168,25.6252 91.7835,27.6252 83,23.5C 80,26.5 77,29.5 74,32.5C 74.9789,35.4751 76.3122,38.4751 78,41.5C 78.8215,44.1168 79.3215,46.7835 79.5,49.5C 82.1667,49.5 84.8333,49.5 87.5,49.5C 88.233,45.1069 90.8997,42.7736 95.5,42.5C 98.9047,43.1913 101.571,44.8579 103.5,47.5C 103.5,50.1667 103.5,52.8333 103.5,55.5C 100.167,60.157 95.8333,61.3237 90.5,59C 88.393,57.7365 87.393,55.9032 87.5,53.5C 84.8333,53.5 82.1667,53.5 79.5,53.5C 79.3215,56.2165 78.8215,58.8832 78,61.5C 76.3122,64.5249 74.9789,67.5249 74,70.5C 77,73.5 80,76.5 83,79.5C 91.3568,75.5607 98.1902,77.2274 103.5,84.5C 103.5,88.1667 103.5,91.8333 103.5,95.5C 101.883,98.7843 99.5497,101.451 96.5,103.5C 92.8333,103.5 89.1667,103.5 85.5,103.5C 78.0956,99.3281 75.5956,92.9948 78,84.5C 78.5,84 79,83.5 79.5,83C 76.5,80 73.5,77 70.5,74C 67.5249,74.9789 64.5249,76.3122 61.5,78C 58.8832,78.8215 56.2165,79.3215 53.5,79.5C 53.5,82.1667 53.5,84.8333 53.5,87.5C 57.8931,88.233 60.2264,90.8997 60.5,95.5C 59.8087,98.9047 58.1421,101.571 55.5,103.5C 52.8333,103.5 50.1667,103.5 47.5,103.5C 42.843,100.167 41.6763,95.8333 44,90.5C 45.2635,88.393 47.0968,87.393 49.5,87.5C 49.5,84.8333 49.5,82.1667 49.5,79.5C 46.7835,79.3215 44.1168,78.8215 41.5,78C 38.4751,76.3122 35.4751,74.9789 32.5,74C 29.5,77 26.5,80 23.5,83C 27.3329,91.272 25.6662,98.1054 18.5,103.5C 14.8333,103.5 11.1667,103.5 7.5,103.5C 4.21573,101.883 1.54906,99.5497 -0.5,96.5C -0.5,92.5 -0.5,88.5 -0.5,84.5C 4.15739,77.939 10.4907,75.7723 18.5,78C 19,78.5 19.5,79 20,79.5C 23,76.5 26,73.5 29,70.5C 28.0211,67.5249 26.6878,64.5249 25,61.5C 24.1785,58.8832 23.6785,56.2165 23.5,53.5C 20.8333,53.5 18.1667,53.5 15.5,53.5C 14.767,57.8931 12.1003,60.2264 7.5,60.5C 4.09525,59.8087 1.42858,58.1421 -0.5,55.5C -0.5,52.8333 -0.5,50.1667 -0.5,47.5C 2.83336,42.843 7.1667,41.6763 12.5,44C 14.607,45.2635 15.607,47.0968 15.5,49.5C 18.1667,49.5 20.8333,49.5 23.5,49.5C 23.6785,46.7835 24.1785,44.1168 25,41.5C 26.6878,38.4751 28.0211,35.4751 29,32.5C 26,29.5 23,26.5 20,23.5C 11.728,27.3329 4.89465,25.6662 -0.5,18.5C -0.5,14.5 -0.5,10.5 -0.5,6.5C 1.5,3.83333 3.83333,1.5 6.5,-0.5 Z M 8.5,3.5 C 17.4946,2.66308 21.6613,6.66308 21,15.5C 15.8333,23.0791 10.1667,23.4124 4,16.5C 2.67513,11.1569 4.17513,6.82358 8.5,3.5 Z M 49.5,3.5 C 54.9836,3.48088 56.6503,5.98088 54.5,11C 47.745,11.7558 46.0783,9.25575 49.5,3.5 Z M 86.5,3.5 C 95.4946,2.66308 99.6613,6.66308 99,15.5C 93.8333,23.0791 88.1667,23.4124 82,16.5C 80.6751,11.1569 82.1751,6.82358 86.5,3.5 Z M 47.5,27.5 C 65.9754,27.808 75.1421,37.1413 75,55.5C 70.9788,69.2603 61.8121,75.7603 47.5,75C 31.6904,70.1856 25.5238,59.6856 29,43.5C 32.6085,35.0484 38.7752,29.7151 47.5,27.5 Z M 5.5,47.5 C 11.704,47.3137 13.0374,49.8137 9.5,55C 3.40339,55.1475 2.07006,52.6475 5.5,47.5 Z M 93.5,47.5 C 99.4877,47.664 100.821,50.164 97.5,55C 91.2016,55.4954 89.8682,52.9954 93.5,47.5 Z M 50.5,60.5 C 52.337,60.6395 52.6704,61.3061 51.5,62.5C 50.7025,62.0431 50.3691,61.3764 50.5,60.5 Z M 8.5,81.5 C 17.4946,80.6631 21.6613,84.6631 21,93.5C 15.8333,101.079 10.1667,101.412 4,94.5C 2.67513,89.1569 4.17513,84.8236 8.5,81.5 Z M 86.5,81.5 C 95.4946,80.6631 99.6613,84.6631 99,93.5C 93.8333,101.079 88.1667,101.412 82,94.5C 80.6751,89.1569 82.1751,84.8236 86.5,81.5 Z M 48.5,91.5 C 55.004,91.1377 56.6707,93.6377 53.5,99C 47.7853,99.401 46.1187,96.901 48.5,91.5 Z"/></g>
<g><path style="opacity:0.716" fill="#000000" d="M 45.5,36.5 C 56.393,34.8456 65.0596,38.3456 71.5,47C 70.9915,48.1685 70.1581,49.0019 69,49.5C 57.3333,37.5 45.6667,37.5 34,49.5C 32.1153,48.6867 31.4487,47.3533 32,45.5C 35.8258,41.3476 40.3258,38.3476 45.5,36.5 Z"/></g>
<g><path style="opacity:0.667" fill="#000000" d="M 48.5,42.5 C 55.4905,42.0349 61.3239,44.3682 66,49.5C 66.49,50.7932 66.6567,52.1266 66.5,53.5C 63.049,53.4737 60.3823,51.9737 58.5,49C 51.4849,46.1209 45.4849,47.4542 40.5,53C 39.2068,53.49 37.8734,53.6567 36.5,53.5C 36.2693,50.2155 37.6026,47.7155 40.5,46C 43.1579,44.522 45.8245,43.3554 48.5,42.5 Z"/></g>
<g><path style="opacity:0.691" fill="#000000" d="M 47.5,49.5 C 51.7924,49.0349 55.7924,49.8682 59.5,52C 61.229,53.7889 61.8957,55.9556 61.5,58.5C 58.204,56.8986 54.8706,55.2319 51.5,53.5C 48.1294,55.2319 44.796,56.8986 41.5,58.5C 41.1202,53.8848 43.1202,50.8848 47.5,49.5 Z"/></g>
<g><path style="opacity:0.741" fill="#000000" d="M 49.5,55.5 C 56.5701,56.4067 58.2368,59.9067 54.5,66C 48,67.5 45.5,65 47,58.5C 47.6979,57.3094 48.5313,56.3094 49.5,55.5 Z M 50.5,60.5 C 50.3691,61.3764 50.7025,62.0431 51.5,62.5C 52.6704,61.3061 52.337,60.6395 50.5,60.5 Z"/></g>
</svg>
