<?xml version="1.0" encoding="UTF-8"?>
<!DOCTYPE svg PUBLIC "-//W3C//DTD SVG 1.1//EN" "http://www.w3.org/Graphics/SVG/1.1/DTD/svg11.dtd">
<svg xmlns="http://www.w3.org/2000/svg" version="1.1" width="104px" height="104px" style="shape-rendering:geometricPrecision; text-rendering:geometricPrecision; image-rendering:optimizeQuality; fill-rule:evenodd; clip-rule:evenodd" xmlns:xlink="http://www.w3.org/1999/xlink">
<g><path style="opacity:0.769" fill="#000000" d="M 43.5,-0.5 C 48.8333,-0.5 54.1667,-0.5 59.5,-0.5C 63.4005,1.1227 67.0671,3.28937 70.5,6C 73.1569,9.48003 75.1569,13.3134 76.5,17.5C 78.1303,18.898 79.9637,19.898 82,20.5C 82.6667,26.5 82.6667,32.5 82,38.5C 79.6566,39.1268 77.4899,40.1268 75.5,41.5C 74.3165,48.8692 70.8165,54.8692 65,59.5C 64.3333,62.1667 64.3333,64.8333 65,67.5C 74.3097,69.4526 83.4764,71.9526 92.5,75C 96.6881,78.2031 98.5215,82.3697 98,87.5C 97.2588,88.6405 96.4255,88.6405 95.5,87.5C 94.53,82.6979 91.8633,79.1979 87.5,77C 81.7138,75.5951 75.8805,74.4284 70,73.5C 66.1276,74.4568 62.2943,75.6235 58.5,77C 49.9732,78.674 42.1398,77.174 35,72.5C 27.3634,74.1614 19.8634,76.3281 12.5,79C 10.9588,80.5793 9.79217,82.4127 9,84.5C 8.16648,88.8346 7.33315,93.168 6.5,97.5C 6.83333,98.1667 7.16667,98.8333 7.5,99.5C 10.8231,100.757 14.1565,100.757 17.5,99.5C 18.4451,95.552 19.1118,91.552 19.5,87.5C 20.8333,87.5 22.1667,87.5 23.5,87.5C 23.423,91.7939 22.7564,95.9605 21.5,100C 41.5083,100.833 61.5083,100.666 81.5,99.5C 80.4017,95.5767 79.735,91.5767 79.5,87.5C 81.451,87.2267 82.951,87.8934 84,89.5C 84.5482,93.1704 85.0482,96.8371 85.5,100.5C 88.8499,100.665 92.1832,100.498 95.5,100C 96.4438,97.2809 96.7771,94.4475 96.5,91.5C 97.8221,91.33 98.9887,91.6634 100,92.5C 101.952,96.3359 101.785,100.003 99.5,103.5C 67.8333,103.5 36.1667,103.5 4.5,103.5C 3.02981,101.841 2.36315,99.8405 2.5,97.5C 2.93396,90.8846 4.43396,84.5512 7,78.5C 8.37818,76.7866 10.0448,75.4533 12,74.5C 12.3333,60.1667 12.6667,45.8333 13,31.5C 14.3184,28.0586 16.8184,26.7253 20.5,27.5C 20.3367,25.1432 20.5034,22.8098 21,20.5C 23.5464,19.8089 25.7131,18.4756 27.5,16.5C 30.1524,8.18431 35.4857,2.51764 43.5,-0.5 Z M 50.5,2.5 C 60.6573,2.9015 67.6573,7.73483 71.5,17C 58.5043,17.4999 45.5043,17.6666 32.5,17.5C 33.0661,13.2033 35.0661,9.70332 38.5,7C 42.3011,4.58368 46.3011,3.08368 50.5,2.5 Z M 28.5,21.5 C 43.8333,21.5 59.1667,21.5 74.5,21.5C 74.5,26.8333 74.5,32.1667 74.5,37.5C 66.7069,37.9753 59.0402,37.3086 51.5,35.5C 48.3134,36.8655 44.9801,37.6988 41.5,38C 40.3852,40.8943 41.5519,42.061 45,41.5C 47.3788,41.5175 49.5455,40.8509 51.5,39.5C 52.5,40 53.5,40.5 54.5,41C 59.8229,41.4994 65.1563,41.666 70.5,41.5C 68.0365,51.9651 61.7032,58.9651 51.5,62.5C 41.7293,59.0635 35.396,52.3968 32.5,42.5C 34.0453,41.5481 35.712,41.2148 37.5,41.5C 37.5,40.1667 37.5,38.8333 37.5,37.5C 34.5,37.5 31.5,37.5 28.5,37.5C 28.5,32.1667 28.5,26.8333 28.5,21.5 Z M 66.5,26.5 C 69.0009,26.5109 69.1676,27.1776 67,28.5C 66.5357,27.9056 66.369,27.2389 66.5,26.5 Z M 17.5,31.5 C 18.5,31.5 19.5,31.5 20.5,31.5C 20.3367,33.8568 20.5034,36.1902 21,38.5C 23.3434,39.1268 25.5101,40.1268 27.5,41.5C 29.2947,49.0933 33.1281,55.4266 39,60.5C 39.782,63.2569 39.282,65.7569 37.5,68C 30.8083,69.4381 24.1417,70.9381 17.5,72.5C 16.1865,58.7705 16.1865,45.1039 17.5,31.5 Z M 43.5,64.5 C 48.5105,67.005 53.5105,67.005 58.5,64.5C 60.1019,66.4271 61.4353,68.5938 62.5,71C 55.1667,74.3333 47.8333,74.3333 40.5,71C 42.1712,69.1575 43.1712,66.9908 43.5,64.5 Z"/></g>
<g><path style="opacity:0.544" fill="#000000" d="M 56.5,23.5 C 57.9432,24.3351 58.9432,25.6684 59.5,27.5C 60.2621,26.3717 60.9288,25.2051 61.5,24C 65.6277,22.7194 68.961,23.7194 71.5,27C 68.8333,29 68.8333,31 71.5,33C 69.3488,35.0215 67.8488,34.5215 67,31.5C 66.5172,32.448 66.3505,33.448 66.5,34.5C 65.5,34.5 64.5,34.5 63.5,34.5C 63.4662,25.2756 62.7996,25.2756 61.5,34.5C 60.1779,34.67 59.0113,34.3366 58,33.5C 56.2653,30.2048 55.7653,26.8715 56.5,23.5 Z M 66.5,26.5 C 66.369,27.2389 66.5357,27.9056 67,28.5C 69.1676,27.1776 69.0009,26.5109 66.5,26.5 Z"/></g>
</svg>
