<?xml version="1.0" encoding="UTF-8"?>
<!DOCTYPE svg PUBLIC "-//W3C//DTD SVG 1.1//EN" "http://www.w3.org/Graphics/SVG/1.1/DTD/svg11.dtd">
<svg xmlns="http://www.w3.org/2000/svg" version="1.1" width="104px" height="104px" style="shape-rendering:geometricPrecision; text-rendering:geometricPrecision; image-rendering:optimizeQuality; fill-rule:evenodd; clip-rule:evenodd" xmlns:xlink="http://www.w3.org/1999/xlink">
<g><path style="opacity:0.732" fill="#000000" d="M 46.5,-0.5 C 50.1667,-0.5 53.8333,-0.5 57.5,-0.5C 60.7798,2.04345 63.6132,5.04345 66,8.5C 68.5659,18.309 66.0659,26.4757 58.5,33C 46.6388,36.4009 39.3055,32.0676 36.5,20C 36.4235,17.2439 37.7569,16.0772 40.5,16.5C 40.5,17.8333 40.5,19.1667 40.5,20.5C 44.4249,20.888 48.0915,20.2213 51.5,18.5C 54.9085,20.2213 58.5751,20.888 62.5,20.5C 62.5,16.8333 62.5,13.1667 62.5,9.5C 55.1667,9.5 47.8333,9.5 40.5,9.5C 40.5,10.8333 40.5,12.1667 40.5,13.5C 36.7747,13.2204 35.608,11.2204 37,7.5C 39.7468,4.24633 42.9135,1.57967 46.5,-0.5 Z M 47.5,3.5 C 48.3764,3.36912 49.0431,3.70245 49.5,4.5C 47.1916,5.87342 46.5249,5.54009 47.5,3.5 Z M 53.5,3.5 C 55.9828,3.72998 56.4828,4.39665 55,5.5C 53.9701,5.16389 53.4701,4.49722 53.5,3.5 Z M 50.5,23.5 C 53.1505,24.4897 55.8172,25.4897 58.5,26.5C 53.8333,31.8333 49.1667,31.8333 44.5,26.5C 46.7451,25.7918 48.7451,24.7918 50.5,23.5 Z"/></g>
<g><path style="opacity:0.654" fill="#000000" d="M 46.5,11.5 C 49.8333,11.5 53.1667,11.5 56.5,11.5C 56.5,12.8333 56.5,14.1667 56.5,15.5C 53.1667,15.5 49.8333,15.5 46.5,15.5C 46.5,14.1667 46.5,12.8333 46.5,11.5 Z"/></g>
<g><path style="opacity:0.733" fill="#000000" d="M 64.5,103.5 C 55.8333,103.5 47.1667,103.5 38.5,103.5C 33.7609,102.552 29.4275,100.552 25.5,97.5C 23.9567,91.6582 26.29,87.9916 32.5,86.5C 33.6642,79.8582 33.8309,73.1915 33,66.5C 31.8984,71.1047 31.065,75.7713 30.5,80.5C 14.3666,85.8594 8.53327,80.5261 13,64.5C 15.47,61.1934 18.6366,58.86 22.5,57.5C 25.8671,51.961 29.0337,46.2943 32,40.5C 33.5793,38.9588 35.4127,37.7922 37.5,37C 46.5,36.3333 55.5,36.3333 64.5,37C 69.8067,38.3067 73.1401,41.64 74.5,47C 73.6667,47.8333 72.8333,48.6667 72,49.5C 69.5971,47.695 67.9305,45.3616 67,42.5C 65.9326,41.8095 64.7659,41.3095 63.5,41C 54.4236,40.0867 45.4236,40.42 36.5,42C 32.8333,48.3333 29.1667,54.6667 25.5,61C 26.3802,62.3561 26.7135,63.8561 26.5,65.5C 27.675,65.719 28.675,65.3857 29.5,64.5C 30.4143,62.3359 31.581,60.3359 33,58.5C 33.3333,55.8333 33.6667,53.1667 34,50.5C 35.0113,49.6634 36.1779,49.33 37.5,49.5C 37.5,54.8333 37.5,60.1667 37.5,65.5C 39.7925,65.2436 41.9592,65.5769 44,66.5C 44.1697,72.5275 44.6697,78.5275 45.5,84.5C 46.3275,80.2044 46.8275,75.8711 47,71.5C 48,70.1667 49,70.1667 50,71.5C 50.1694,77.8594 50.6694,84.1928 51.5,90.5C 52.8333,81.5 52.8333,72.5 51.5,63.5C 50.9955,66.3418 49.3289,67.6751 46.5,67.5C 46.3359,64.8127 46.5026,62.146 47,59.5C 50.3759,58.6112 52.5426,56.4445 53.5,53C 56.4816,52.502 59.4816,52.3354 62.5,52.5C 62.5,53.8333 62.5,55.1667 62.5,56.5C 60.1667,56.5 57.8333,56.5 55.5,56.5C 56.0867,65.8199 56.7534,75.1532 57.5,84.5C 58.329,79.5329 58.829,74.5329 59,69.5C 61.0408,68.5769 63.2075,68.2436 65.5,68.5C 65.5,62.1667 65.5,55.8333 65.5,49.5C 66.8221,49.33 67.9887,49.6634 69,50.5C 68.6533,56.6343 70.82,61.6343 75.5,65.5C 76.3184,63.8917 76.9851,62.2251 77.5,60.5C 75.3418,57.8515 74.0084,54.8515 73.5,51.5C 74.9778,51.238 76.3112,51.5713 77.5,52.5C 78.2485,54.3325 79.2485,55.9991 80.5,57.5C 90.0617,60.956 93.5617,67.6227 91,77.5C 90.5,79.3333 89.3333,80.5 87.5,81C 82.5,81.6667 77.5,81.6667 72.5,81C 71.9682,76.4031 71.1349,71.9031 70,67.5C 69.1694,73.8595 69.3361,80.1928 70.5,86.5C 76.503,87.9726 79.003,91.6393 78,97.5C 73.8473,100.482 69.3473,102.482 64.5,103.5 Z M 19.5,63.5 C 20.552,63.3505 21.552,63.5172 22.5,64C 20.8542,65.5548 20.5209,67.2215 21.5,69C 23.4727,69.4955 25.4727,69.6621 27.5,69.5C 27.5,72.1667 27.5,74.8333 27.5,77.5C 14.7123,78.7268 12.0456,74.0601 19.5,63.5 Z M 80.5,64.5 C 80.7352,63.9033 81.2352,63.5699 82,63.5C 83.6449,65.1449 85.3116,66.8116 87,68.5C 87.6667,70.8333 87.6667,73.1667 87,75.5C 83.5065,77.377 79.6732,78.0436 75.5,77.5C 75.5,74.8333 75.5,72.1667 75.5,69.5C 77.5,69.5 79.5,69.5 81.5,69.5C 81.7845,67.5853 81.4511,65.9187 80.5,64.5 Z M 37.5,69.5 C 38.821,72.5982 39.4877,76.0982 39.5,80C 39.1667,83.5 38.8333,87 38.5,90.5C 37.503,83.5316 37.1697,76.5316 37.5,69.5 Z M 63.5,72.5 C 64.8164,75.0866 65.483,78.0866 65.5,81.5C 65.1667,84.5 64.8333,87.5 64.5,90.5C 63.5041,84.5368 63.1707,78.5368 63.5,72.5 Z M 44.5,88.5 C 46.12,89.8409 47.12,91.6742 47.5,94C 50.1667,94.6667 52.8333,94.6667 55.5,94C 56.6529,87.1674 57.9862,87.0008 59.5,93.5C 61,93.8333 62.5,94.1667 64,94.5C 66.8063,94.3741 69.1396,93.3741 71,91.5C 75.5194,93.3943 75.3527,95.2276 70.5,97C 60.6429,99.4183 50.6429,100.085 40.5,99C 36.0667,98.5788 32.0667,97.0788 28.5,94.5C 31.0201,90.2715 33.0201,90.1048 34.5,94C 37.1667,94.6667 39.8333,94.6667 42.5,94C 44.1554,92.5557 44.822,90.7224 44.5,88.5 Z"/></g>
<g><path style="opacity:0.668" fill="#000000" d="M 53.5,46.5 C 57.0479,46.0949 60.3812,46.5949 63.5,48C 60.6381,50.4119 57.3048,51.0786 53.5,50C 52.3157,48.8545 52.3157,47.6879 53.5,46.5 Z"/></g>
</svg>
