<?xml version="1.0" standalone="no"?>
<!DOCTYPE svg PUBLIC "-//W3C//DTD SVG 20010904//EN"
 "http://www.w3.org/TR/2001/REC-SVG-20010904/DTD/svg10.dtd">
<svg version="1.0" xmlns="http://www.w3.org/2000/svg"
 width="2802.000000pt" height="2802.000000pt" viewBox="0 0 2802.000000 2802.000000"
 preserveAspectRatio="xMidYMid meet">
<metadata>
Created by potrace 1.14, written by Peter Selinger 2001-2017
</metadata>
<g transform="translate(0.000000,2802.000000) scale(0.100000,-0.100000)"
fill="#000000" stroke="none">
<path d="M20905 16590 c-162 -42 -254 -183 -256 -391 -1 -148 33 -250 109
-328 62 -63 122 -86 227 -86 106 0 163 22 228 89 70 72 108 180 108 309 0 151
-40 256 -127 336 -77 70 -187 98 -289 71z m155 -178 c14 -10 36 -40 50 -68 22
-43 25 -62 25 -154 0 -92 -3 -111 -25 -154 -34 -68 -68 -91 -131 -90 -42 1
-56 7 -83 33 -43 42 -64 111 -64 213 0 161 63 252 166 241 21 -2 48 -12 62
-21z"/>
<path d="M19763 16345 c-175 -228 -188 -249 -193 -295 -10 -91 -19 -87 205
-87 108 -1 199 -3 202 -6 3 -3 6 -39 8 -79 1 -40 3 -77 4 -81 0 -4 38 -7 84
-5 l82 3 3 83 c2 55 7 82 15 83 7 1 31 1 54 1 58 -1 71 15 68 82 -2 72 -11 82
-79 80 l-56 -2 0 68 c0 43 -5 72 -12 76 -23 14 -137 12 -150 -3 -6 -8 -11 -42
-11 -77 l0 -63 -88 -1 c-49 0 -89 3 -89 7 0 3 72 100 159 216 186 246 186 245
61 245 l-79 0 -188 -245z"/>
<path d="M22538 16539 c-6 -4 -8 -12 -4 -18 4 -6 2 -9 -6 -6 -11 4 -287 -326
-296 -355 -2 -6 3 -19 12 -28 25 -28 46 -88 46 -132 l0 -41 47 58 c98 122 128
158 134 163 17 15 129 169 129 178 0 5 6 12 14 15 7 3 16 15 19 27 4 16 2 20
-9 16 -9 -3 -12 -1 -9 5 4 5 15 7 25 4 28 -9 31 20 4 46 -28 26 -33 16 -6 -15
13 -16 10 -15 -15 4 -21 16 -31 32 -29 43 3 11 0 17 -7 14 -7 -2 -12 -15 -12
-28 0 -18 -6 -24 -22 -25 -12 -1 -20 2 -17 7 2 4 11 6 19 2 8 -3 15 0 15 6 0
6 -5 11 -12 11 -6 0 -2 10 10 23 12 13 22 25 22 28 0 7 -39 6 -52 -2z m71 -99
c-6 -5 -18 -6 -26 -3 -19 8 -16 11 13 11 17 0 22 -3 13 -8z m-28 -73 c-10 -9
-11 -8 -5 6 3 10 9 15 12 12 3 -3 0 -11 -7 -18z"/>
<path d="M22861 16513 c0 -23 -7 -44 -13 -46 -10 -4 -10 -6 0 -6 6 -1 12 -9
13 -18 0 -15 2 -15 9 2 7 17 9 17 9 3 1 -10 5 -18 11 -18 5 0 7 8 4 18 -5 14
-4 15 5 2 16 -23 13 -30 -14 -30 -19 0 -25 -5 -25 -22 0 -12 3 -18 7 -15 3 4
13 1 21 -6 11 -8 14 -9 9 0 -5 8 0 11 13 10 11 -1 20 -6 20 -12 0 -5 5 -3 10
5 5 8 10 10 10 4 0 -14 30 -14 30 0 0 6 5 4 10 -4 9 -13 11 -13 20 0 6 9 10
10 10 3 0 -9 71 -12 285 -11 180 0 285 4 285 10 0 6 -18 44 -40 87 l-40 76
-312 -1 c-172 -1 -315 -2 -318 -3 -3 -2 4 -6 15 -11 19 -8 19 -9 -2 -9 -12 -1
-23 6 -26 17 -3 9 -5 -2 -6 -25z m37 -36 c12 -3 10 -5 -5 -6 -18 -1 -23 4 -22
22 1 15 3 17 6 5 2 -9 12 -19 21 -21z m12 23 c0 -5 -4 -10 -10 -10 -5 0 -10 5
-10 10 0 6 5 10 10 10 6 0 10 -4 10 -10z m8 -97 c-10 -2 -26 -2 -35 0 -10 3
-2 5 17 5 19 0 27 -2 18 -5z"/>
<path d="M23630 16546 c0 -5 80 -160 86 -165 3 -3 42 -6 87 -7 45 -1 84 -2 87
-3 3 0 5 -99 4 -219 0 -241 3 -302 18 -302 6 0 8 7 4 15 -3 8 -1 15 4 15 6 0
11 -12 11 -27 l1 -28 8 30 8 30 2 -30 c1 -18 4 -23 7 -12 2 9 9 15 14 11 5 -3
6 -10 3 -16 -4 -7 -2 -8 4 -4 18 11 14 34 -5 39 -14 4 -12 5 5 6 17 1 22 -5
23 -26 1 -17 3 -21 6 -10 2 9 11 17 19 17 8 0 12 5 9 10 -3 6 -1 10 4 10 6 0
11 -4 11 -10 0 -5 3 -10 8 -10 9 0 7 174 -3 190 -5 8 -4 11 1 7 6 -3 9 70 9
186 -1 211 -6 231 -64 280 -29 24 -33 25 -201 26 -93 0 -170 -1 -170 -3z m337
-608 c-3 -7 -5 -2 -5 12 0 14 2 19 5 13 2 -7 2 -19 0 -25z m50 -20 c-3 -7 -5
-2 -5 12 0 14 2 19 5 13 2 -7 2 -19 0 -25z m30 -8 c1 -15 -4 -20 -20 -19 -21
0 -21 1 -2 9 11 5 16 9 12 9 -5 1 -5 6 -2 11 9 14 11 13 12 -10z m-104 3 c-7
-2 -19 -2 -25 0 -7 3 -2 5 12 5 14 0 19 -2 13 -5z"/>
<path d="M24064 16538 c-3 -4 -13 -5 -25 -3 -19 4 -19 3 3 -28 12 -18 26 -34
30 -35 5 -2 6 -8 2 -13 -3 -5 -1 -9 3 -9 5 0 8 -17 8 -37 l0 -38 113 -2 c61
-1 112 1 112 5 -1 4 -20 43 -43 87 l-42 80 -78 0 c-44 0 -81 -3 -83 -7z"/>
<path d="M24514 16537 c-52 -10 -123 -71 -147 -126 -16 -36 -21 -69 -22 -151
0 -62 3 -108 10 -112 6 -5 6 -8 -2 -8 -7 0 -13 -5 -13 -11 0 -5 5 -7 11 -3 8
5 8 1 0 -13 -7 -14 -7 -24 2 -33 9 -10 9 -11 0 -6 -7 4 -13 5 -13 1 0 -3 10
-10 23 -15 l22 -9 -24 0 c-20 -1 -21 -3 -11 -16 10 -12 10 -15 -1 -15 -9 0
-10 -3 -3 -8 6 -4 10 -17 9 -29 -1 -21 3 -23 47 -23 26 0 48 4 48 9 0 5 -11 8
-25 5 -14 -2 -25 0 -25 6 0 6 5 8 10 5 6 -3 10 -2 10 4 0 5 -6 12 -12 14 -7 3
3 5 22 5 19 0 27 -2 18 -5 -10 -2 -18 -8 -18 -13 0 -5 7 -7 15 -4 9 4 15 0 15
-10 0 -22 40 -21 41 2 0 14 2 14 9 -3 10 -23 12 6 12 218 0 174 4 180 101 178
65 -1 67 -1 73 26 10 50 37 104 61 123 13 10 23 20 23 22 0 7 -228 3 -266 -5z
m-24 -508 c0 -5 -4 -9 -8 -9 -5 0 -9 7 -9 15 0 8 4 12 9 9 4 -3 8 -9 8 -15z
m-100 1 c0 -5 -5 -10 -11 -10 -5 0 -7 5 -4 10 3 6 8 10 11 10 2 0 4 -4 4 -10z
m113 -27 c-7 -2 -19 -2 -25 0 -7 3 -2 5 12 5 14 0 19 -2 13 -5z m-113 -23 c0
-5 -2 -10 -4 -10 -3 0 -8 5 -11 10 -3 6 -1 10 4 10 6 0 11 -4 11 -10z m100 0
c0 -5 -4 -10 -10 -10 -5 0 -10 5 -10 10 0 6 5 10 10 10 6 0 10 -4 10 -10z"/>
<path d="M24813 16529 c-41 -19 -81 -62 -88 -96 -2 -10 -5 -25 -7 -33 -2 -9 4
-14 15 -14 9 1 17 -1 17 -5 0 -3 53 -6 117 -6 147 0 153 -4 153 -105 0 -60 -3
-70 -17 -71 -10 0 -83 0 -162 1 -108 0 -146 -2 -153 -12 -6 -10 -8 -10 -8 0 0
7 -13 12 -30 12 -25 0 -30 -4 -30 -24 0 -13 -6 -27 -12 -29 -10 -4 -10 -6 0
-6 8 -1 12 -17 12 -46 0 -34 4 -47 18 -52 9 -4 20 -11 24 -17 5 -8 14 -7 29 2
12 8 18 9 14 2 -5 -8 46 -10 182 -7 168 3 192 6 229 25 67 34 77 59 79 188 1
67 -4 130 -12 157 -17 58 -79 121 -141 141 -65 22 -177 19 -229 -5z m-155
-346 c-9 -2 -19 -12 -21 -21 -3 -12 -5 -10 -6 6 -1 17 4 22 22 21 15 -1 17 -3
5 -6z m12 -23 c0 -5 -4 -10 -10 -10 -5 0 -10 5 -10 10 0 6 5 10 10 10 6 0 10
-4 10 -10z m-12 -27 c-9 -2 -19 -16 -21 -31 -4 -24 -4 -24 -6 6 -1 27 2 32 22
31 15 -1 17 -3 5 -6z m12 -17 c0 -3 -4 -8 -10 -11 -5 -3 -10 -1 -10 4 0 6 5
11 10 11 6 0 10 -2 10 -4z m28 -33 c-10 -2 -26 -2 -35 0 -10 3 -2 5 17 5 19 0
27 -2 18 -5z m-28 -23 c0 -5 -4 -10 -10 -10 -5 0 -10 5 -10 10 0 6 5 10 10 10
6 0 10 -4 10 -10z"/>
<path d="M21720 16510 c0 -28 18 -67 45 -96 5 -6 24 -29 42 -50 179 -221 230
-282 250 -301 13 -13 20 -23 16 -24 -4 0 3 -5 16 -10 15 -6 21 -14 17 -25 -3
-8 -2 -12 4 -9 6 3 10 1 10 -5 0 -6 5 -8 10 -5 6 4 8 11 5 16 -3 5 1 6 10 3
11 -5 14 -2 9 12 -4 14 -3 16 4 5 12 -17 24 0 12 18 -4 8 -13 10 -21 6 -12 -7
-12 -6 -1 6 11 12 15 11 26 -3 16 -22 30 -23 22 -2 -3 8 -2 12 4 9 17 -11 11
-22 -25 -46 -43 -29 -55 -52 -19 -35 13 6 24 15 24 20 0 5 9 1 20 -9 18 -17
20 -17 14 -2 -8 22 5 22 23 0 8 -10 11 -12 8 -5 -4 8 1 20 11 28 17 12 17 13
2 8 -11 -4 -18 -1 -18 6 0 7 -6 6 -16 -4 -23 -23 -30 -20 -9 4 13 14 25 18 39
14 18 -6 19 -5 9 8 -7 8 -10 18 -7 21 4 4 -1 19 -11 34 -17 25 -221 281 -235
293 -3 3 -31 38 -63 78 l-58 72 -84 0 -85 0 0 -30z m464 -408 c-5 -4 -12 -11
-15 -15 -3 -5 -9 -2 -12 5 -3 9 3 14 15 15 11 1 16 -1 12 -5z m61 -31 c0 -8
-6 -15 -13 -17 -7 -1 -8 0 -2 3 21 10 9 22 -20 18 -17 -2 -28 0 -26 4 9 13 61
7 61 -8z"/>
<path d="M22623 16521 c-30 -25 -29 -30 4 -28 14 1 28 9 30 17 4 13 3 13 -6 0
-5 -8 -13 -11 -17 -7 -4 3 -1 13 6 22 17 20 10 18 -17 -4z"/>
<path d="M22662 16488 c-11 -14 10 -43 22 -31 11 11 6 24 -6 17 -8 -5 -9 -2
-5 9 8 20 3 22 -11 5z"/>
<path d="M22628 16358 c-40 -56 -77 -109 -82 -117 -12 -20 -16 -330 -4 -337 4
-3 8 -10 8 -15 0 -6 -6 -7 -12 -3 -9 5 -9 2 1 -9 11 -14 11 -17 0 -17 -10 0
-10 -3 -3 -8 6 -4 10 -15 8 -24 -1 -10 2 -18 7 -18 5 0 9 6 10 13 0 6 4 3 9
-8 7 -17 9 -17 9 -2 1 9 6 17 12 17 5 0 8 -4 5 -8 -2 -4 4 -8 15 -8 10 0 19 6
19 13 0 7 6 13 14 13 8 0 17 8 19 18 4 13 5 11 6 -5 1 -14 -5 -23 -14 -23 -8
0 -15 -3 -15 -7 0 -5 16 -8 35 -8 l35 0 0 323 c0 177 -2 322 -4 322 -2 0 -37
-46 -78 -102z m16 -500 c-3 -4 -11 -5 -19 -1 -21 7 -19 12 4 10 11 0 18 -5 15
-9z"/>
<path d="M22826 16442 c6 -4 14 -14 17 -22 4 -10 6 -8 6 8 1 15 -5 22 -16 22
-11 0 -14 -3 -7 -8z"/>
<path d="M21719 16290 c-4 -143 -4 -480 1 -481 35 -7 170 -3 171 5 3 55 -2
299 -6 306 -4 6 0 10 7 10 8 0 9 3 3 8 -6 4 -10 25 -10 47 1 41 -30 99 -47 89
-4 -3 -9 3 -9 13 -1 10 -5 5 -9 -12 l-8 -30 -1 27 c-1 20 -6 26 -21 25 -11 -1
-20 -8 -21 -17 0 -10 -3 -9 -9 5 l-9 20 -1 -20 c-2 -11 -2 -23 -1 -27 0 -5 -4
-8 -9 -8 -6 0 -8 11 -6 23 2 13 0 30 -5 38 -6 10 -9 4 -10 -21z m81 -10 c0 -5
-5 -10 -11 -10 -5 0 -7 5 -4 10 3 6 8 10 11 10 2 0 4 -4 4 -10z m13 -47 c-7
-2 -19 -2 -25 0 -7 3 -2 5 12 5 14 0 19 -2 13 -5z m50 0 c-7 -2 -19 -2 -25 0
-7 3 -2 5 12 5 14 0 19 -2 13 -5z m-100 -20 c-7 -2 -19 -2 -25 0 -7 3 -2 5 12
5 14 0 19 -2 13 -5z m24 -35 c-3 -8 -6 -5 -6 6 -1 11 2 17 5 13 3 -3 4 -12 1
-19z"/>
<path d="M21778 16313 c6 -2 18 -2 25 0 6 3 1 5 -13 5 -14 0 -19 -2 -12 -5z"/>
<path d="M22895 16236 c-95 -48 -127 -114 -127 -264 0 -164 0 -162 22 -162 32
0 96 37 118 68 23 32 29 54 36 131 2 29 9 58 15 64 7 7 89 12 234 13 271 2
250 1 243 19 -3 8 -1 15 4 15 6 0 10 -6 10 -13 0 -8 7 -14 15 -14 9 0 15 10
15 24 0 14 -4 21 -10 18 -5 -3 -10 -2 -10 4 0 5 6 12 13 15 6 3 0 4 -15 1 -16
-3 -28 -1 -28 5 0 5 3 9 8 9 19 -3 45 2 39 8 -4 3 -1 13 6 21 9 13 9 14 0 8
-9 -5 -13 1 -13 21 l0 28 -262 3 -263 3 -50 -25z m562 -2 c-3 -3 -12 -4 -19
-1 -8 3 -5 6 6 6 11 1 17 -2 13 -5z m-20 -46 c-3 -7 -5 -2 -5 12 0 14 2 19 5
13 2 -7 2 -19 0 -25z m20 0 c-3 -7 -5 -2 -5 12 0 14 2 19 5 13 2 -7 2 -19 0
-25z m-50 16 c-3 -3 -12 -4 -19 -1 -8 3 -5 6 6 6 11 1 17 -2 13 -5z"/>
<path d="M23491 16114 c0 -11 3 -14 6 -6 3 7 2 16 -1 19 -3 4 -6 -2 -5 -13z"/>
<path d="M24595 16120 c3 -5 8 -10 11 -10 2 0 4 5 4 10 0 6 -5 10 -11 10 -5 0
-7 -4 -4 -10z"/>
<path d="M25177 16065 c-8 -20 -78 -54 -120 -57 l-35 -2 1 -98 c0 -54 3 -98 6
-98 3 -1 42 -2 86 -2 l80 -2 0 137 c0 128 -5 158 -18 122z"/>
<path d="M20445 16002 c-31 -6 -74 -52 -81 -87 -21 -111 119 -179 191 -93 23
28 26 39 23 80 -3 27 -13 57 -22 67 -19 21 -80 39 -111 33z"/>
<path d="M23135 15980 c-27 -3 -74 -5 -102 -5 -56 1 -72 -11 -25 -18 l27 -4
-27 -2 c-21 -1 -28 -6 -28 -20 0 -14 8 -21 28 -24 l27 -4 -27 -2 c-27 -1 -28
-3 -27 -48 1 -27 3 -40 6 -30 3 12 14 17 36 16 30 -2 31 -2 5 -6 -16 -2 -28
-8 -28 -13 0 -5 133 -9 300 -10 l301 0 -14 27 c-8 16 -27 54 -41 86 -17 34
-34 57 -44 58 -68 4 -326 3 -367 -1z m-85 -44 c0 -3 -4 -8 -10 -11 -5 -3 -10
-1 -10 4 0 6 5 11 10 11 6 0 10 -2 10 -4z m0 -56 c0 -5 -7 -7 -16 -3 -11 4
-22 -1 -30 -12 -14 -18 -14 -18 -14 1 0 15 8 20 30 22 17 1 30 -2 30 -8z m-20
-20 c0 -5 -5 -10 -11 -10 -5 0 -7 5 -4 10 3 6 8 10 11 10 2 0 4 -4 4 -10z"/>
<path d="M22168 15973 c-22 -5 -24 -30 -3 -30 8 0 13 3 10 5 -3 3 0 11 6 19 6
7 10 12 8 12 -2 -1 -12 -3 -21 -6z"/>
<path d="M24435 15940 c3 -5 8 -10 11 -10 2 0 4 5 4 10 0 6 -5 10 -11 10 -5 0
-7 -4 -4 -10z"/>
<path d="M24460 15942 c0 -4 9 -8 20 -8 11 0 20 4 20 8 0 4 -9 8 -20 8 -11 0
-20 -4 -20 -8z"/>
<path d="M24025 15840 c3 -5 8 -10 11 -10 2 0 4 5 4 10 0 6 -5 10 -11 10 -5 0
-7 -4 -4 -10z"/>
<path d="M8497 15764 c-1 -2 -23 -4 -47 -5 -25 -1 -63 -5 -85 -10 -22 -4 -51
-10 -65 -13 -14 -2 -50 -13 -80 -24 -244 -86 -427 -276 -522 -542 -41 -114
-58 -244 -53 -405 5 -172 8 -199 41 -313 105 -362 394 -590 766 -605 213 -9
382 43 532 163 101 82 121 104 103 121 -7 8 -55 61 -106 119 -51 58 -97 107
-102 108 -5 2 -30 -15 -57 -38 -89 -79 -201 -115 -330 -107 -95 6 -111 9 -170
42 -128 71 -208 199 -240 387 -9 55 -9 271 1 323 32 173 133 327 255 389 136
68 327 52 445 -38 75 -57 57 -62 147 44 30 36 58 67 61 70 4 3 23 25 44 49
l37 45 -44 38 c-87 77 -234 159 -312 174 -11 2 -32 6 -46 9 -31 7 -170 22
-173 19z"/>
<path d="M16718 15766 c-1 -2 -36 -6 -76 -10 -365 -31 -623 -269 -713 -656
-41 -179 -33 -461 20 -660 31 -119 122 -278 212 -368 56 -56 163 -131 219
-152 19 -7 40 -17 45 -21 6 -4 48 -16 95 -28 151 -37 336 -33 486 12 215 64
398 236 490 460 60 149 79 267 78 487 0 171 -13 258 -55 383 -107 318 -366
522 -689 543 -47 3 -90 7 -97 9 -6 2 -13 2 -15 1z m175 -404 c163 -78 251
-264 251 -537 1 -132 -4 -180 -29 -275 -36 -140 -121 -257 -223 -307 -68 -33
-195 -42 -264 -17 -189 66 -297 279 -296 584 0 255 70 436 205 525 104 70 243
81 356 27z"/>
<path d="M250 14426 c0 -1101 3 -1348 15 -1431 98 -690 568 -1307 1132 -1490
150 -48 220 -57 474 -57 130 1 256 3 280 6 106 15 129 19 224 43 468 116 870
439 1096 878 115 224 190 519 189 745 l-1 75 -258 -263 c-239 -242 -262 -269
-296 -340 -58 -122 -142 -240 -245 -342 -178 -178 -376 -282 -640 -336 -62
-13 -132 -18 -260 -18 -155 0 -188 3 -288 26 -314 75 -585 259 -755 514 -78
118 -143 251 -185 386 -65 202 -63 165 -60 933 l3 700 23 43 c13 24 31 51 40
60 9 10 60 65 112 122 52 57 102 111 110 120 24 25 224 242 235 254 8 9 168
183 240 262 6 6 46 51 90 100 83 92 153 168 245 267 30 32 56 61 57 65 2 4
-353 8 -787 8 l-790 2 0 -1332z m808 915 c6 -3 -374 -376 -383 -376 -9 0 -17
345 -8 371 3 8 62 11 196 9 106 -2 193 -3 195 -4z"/>
<path d="M2597 15645 c-60 -60 -262 -267 -450 -460 -188 -192 -495 -504 -682
-692 -235 -237 -348 -359 -368 -394 l-27 -51 0 -450 c0 -365 3 -463 15 -526
65 -321 244 -567 499 -682 90 -41 239 -79 336 -86 111 -9 210 9 302 52 81 39
37 -4 990 965 240 244 439 447 443 450 5 6 8 293 6 519 l-1 65 -203 -207
c-111 -114 -400 -408 -643 -655 -243 -246 -510 -518 -595 -605 -147 -150 -156
-157 -202 -163 -132 -20 -262 18 -358 104 l-44 40 142 143 c78 79 179 182 225
229 217 226 1031 1054 1439 1465 l239 241 0 292 c0 160 -3 291 -7 291 -4 0
-50 -44 -101 -97 -52 -54 -271 -278 -486 -498 -215 -220 -465 -476 -556 -569
-91 -92 -250 -255 -355 -360 -104 -106 -299 -304 -433 -441 l-243 -248 3 269
c4 350 -15 308 274 603 377 384 433 444 427 454 -3 6 -1 7 4 4 9 -6 413 399
896 897 60 61 131 134 158 161 l49 51 -292 0 -293 -1 -108 -110z"/>
<path d="M4229 15673 c0 -71 0 -1727 0 -1766 l1 -27 208 2 207 3 2 310 c1 171
2 343 2 383 l1 72 315 0 c293 0 315 -1 316 -17 0 -10 1 -183 1 -385 l1 -368
208 0 c160 0 209 3 210 13 1 17 1 1775 0 1810 l-1 27 -207 -2 -208 -3 0 -352
c0 -194 -2 -354 -5 -354 -3 -1 -146 -2 -317 -3 l-313 -1 -1 25 c0 14 0 175 0
358 l1 332 -210 0 -210 0 -1 -57z"/>
<path d="M6469 15724 c-1 -2 -2 -7 -3 -11 -1 -5 -9 -30 -18 -58 -30 -96 -129
-411 -174 -555 -25 -80 -52 -163 -59 -185 -8 -22 -36 -112 -64 -200 -112 -360
-252 -806 -258 -822 -4 -10 42 -13 210 -13 l215 0 11 33 c6 17 28 106 51 197
22 91 44 175 49 186 9 21 13 21 287 20 l278 -1 23 -85 c13 -47 25 -94 28 -105
2 -11 9 -38 15 -60 6 -22 13 -49 15 -60 3 -11 11 -42 18 -70 l13 -50 222 -3
c122 -1 222 0 222 3 0 3 -36 121 -81 263 -44 141 -121 383 -169 537 -48 154
-136 433 -195 620 -59 187 -112 358 -119 380 l-12 40 -252 2 c-139 1 -253 0
-253 -3z m255 -341 c3 -10 7 -29 10 -43 9 -45 13 -64 89 -361 41 -162 77 -303
79 -314 3 -19 -4 -19 -189 -20 -106 0 -193 2 -193 5 0 3 20 79 44 170 58 218
118 466 132 543 7 39 19 48 28 20z"/>
<path d="M9379 15708 c-1 -29 -1 -1798 0 -1815 1 -10 50 -13 210 -13 l209 0
-2 250 c0 138 2 251 5 253 3 1 49 61 103 132 53 72 100 131 104 132 4 2 90
-142 192 -319 102 -176 197 -342 213 -367 15 -25 30 -54 33 -63 4 -10 16 -18
28 -19 11 0 196 -1 410 -1 325 -1 390 1 396 13 4 8 28 97 54 199 26 102 51
195 56 206 8 21 12 21 287 20 l278 -1 23 -85 c12 -47 24 -96 27 -110 3 -14 18
-72 34 -130 l28 -105 221 -3 c122 -1 222 0 222 3 0 3 -25 86 -56 183 -54 172
-107 338 -218 694 -62 197 -141 448 -222 706 -31 97 -61 195 -68 217 l-12 40
-253 0 c-218 0 -255 -2 -257 -15 -2 -8 -58 -188 -125 -400 -67 -212 -134 -425
-149 -475 -16 -49 -84 -266 -151 -482 l-123 -392 -19 27 c-10 15 -70 115 -134
222 -64 107 -183 308 -265 445 -83 138 -161 269 -174 292 l-25 43 199 262
c109 145 233 308 275 363 42 55 77 103 77 107 0 4 -102 7 -227 7 l-228 0 -105
-145 c-58 -80 -114 -158 -126 -172 -11 -15 -89 -121 -172 -236 -84 -114 -152
-204 -153 -200 0 5 -1 176 -2 379 l-2 370 -207 3 -208 2 -1 -22z m2305 -325
c3 -10 7 -29 10 -43 8 -42 12 -57 81 -325 36 -143 68 -267 70 -276 2 -9 8 -33
13 -53 6 -20 10 -37 9 -37 -8 -5 -379 -3 -382 2 -3 3 16 82 41 175 48 179 94
368 121 497 16 76 27 94 37 60z"/>
<path d="M12360 15552 l0 -177 243 0 c133 1 247 -1 254 -3 8 -3 11 -184 11
-720 0 -394 1 -729 1 -744 l1 -28 209 0 209 0 1 653 c0 358 0 695 0 747 l1 95
253 0 252 0 0 175 0 175 -717 2 -718 2 0 -177z"/>
<path d="M14079 15718 c-1 -17 -1 -1820 0 -1830 1 -5 95 -8 210 -8 l208 0 1
353 c0 193 1 367 1 385 l1 32 315 0 315 0 0 -62 c0 -35 1 -208 1 -385 l1 -323
209 0 209 0 1 53 c1 67 1 1710 0 1759 l-1 37 -207 -2 -208 -2 -2 -348 c0 -192
-4 -351 -8 -355 -4 -4 -146 -7 -316 -7 -302 0 -309 0 -310 20 0 11 -1 172 -1
357 l-1 337 -208 1 c-162 0 -209 -2 -210 -12z"/>
<path d="M17929 15698 c-1 -41 0 -1788 0 -1806 1 -10 44 -12 199 -10 l197 3
-1 415 c0 362 -5 526 -19 620 -2 14 -7 57 -10 95 -3 39 -10 96 -14 128 -4 31
-5 57 -2 57 3 0 28 -55 55 -123 49 -121 155 -342 266 -552 72 -135 188 -359
272 -523 l63 -122 220 2 220 3 1 923 1 922 -198 0 c-183 0 -199 -1 -200 -17
-9 -199 3 -926 16 -994 2 -9 6 -52 10 -95 3 -43 8 -86 10 -94 3 -8 7 -42 10
-75 5 -58 4 -59 -10 -30 -8 17 -40 91 -71 165 -30 74 -91 203 -134 285 -89
173 -161 311 -286 550 -48 94 -103 200 -122 236 l-34 67 -219 1 -219 2 -1 -33z"/>
<path d="M8292 13515 c-107 -32 -172 -112 -188 -231 -30 -226 73 -381 252
-382 146 0 242 109 252 285 8 143 -43 259 -135 307 -48 25 -134 34 -181 21z
m140 -82 c65 -38 98 -112 98 -224 0 -103 -41 -193 -102 -225 -35 -18 -99 -18
-143 0 -79 33 -126 176 -101 303 27 138 144 207 248 146z"/>
<path d="M10700 13520 c-130 -23 -219 -144 -221 -300 -3 -206 119 -337 292
-317 56 7 119 38 138 69 10 17 10 23 -4 38 -16 18 -18 17 -63 -11 -53 -34
-117 -39 -176 -14 -108 45 -145 263 -66 388 54 85 178 109 246 46 20 -19 21
-19 43 5 21 22 21 25 6 40 -41 41 -132 67 -195 56z"/>
<path d="M13529 13520 c-137 -24 -198 -169 -110 -258 28 -27 51 -40 176 -98
61 -27 87 -55 90 -91 2 -36 -22 -78 -52 -92 -56 -26 -159 -7 -225 41 -15 11
-21 9 -40 -10 l-23 -23 30 -25 c48 -39 95 -57 162 -62 139 -10 232 69 226 191
-3 61 -37 93 -167 156 -127 62 -147 81 -139 130 11 76 117 100 208 46 l43 -25
16 25 c9 13 16 27 16 29 0 3 -20 17 -43 31 -51 29 -118 43 -168 35z"/>
<path d="M14376 13518 c-66 -9 -134 -44 -165 -85 -12 -16 -25 -33 -29 -39 -11
-13 -34 -81 -39 -114 -13 -95 6 -201 46 -267 26 -42 93 -90 145 -104 78 -21
225 10 252 53 8 12 14 233 7 253 -5 15 -183 11 -193 -4 -10 -17 -1 -51 14 -52
6 0 33 -1 61 -2 l50 -2 0 -78 c0 -76 -1 -79 -27 -93 -15 -8 -53 -14 -84 -14
-109 0 -176 67 -193 194 -21 156 58 285 176 288 66 2 79 -1 116 -26 34 -23 36
-23 51 -7 23 25 20 37 -14 61 -47 33 -107 47 -174 38z"/>
<path d="M4239 13510 c-1 -3 -2 -17 -3 -32 -3 -31 -10 -29 120 -29 l61 -1 -1
-269 -1 -270 40 3 40 3 0 265 0 265 91 3 92 3 -2 29 c0 17 -3 30 -6 30 -48 4
-430 4 -431 0z"/>
<path d="M5203 13512 l-33 -3 0 -125 0 -124 -142 0 -143 0 2 125 3 125 -40 0
-40 0 1 -300 0 -300 39 0 38 0 0 136 c0 75 2 138 5 140 4 4 209 8 260 5 15 -1
17 -15 17 -142 l0 -140 37 3 38 3 0 287 c0 159 -2 294 -5 300 -3 8 -18 12 -37
10z"/>
<path d="M5706 13510 c-2 -3 -3 -139 -3 -303 l0 -298 36 3 36 3 0 172 c0 95
-2 206 -5 248 -3 41 -4 75 -3 75 2 0 14 -24 29 -52 14 -29 76 -142 138 -250
l111 -197 43 -1 42 0 0 303 0 302 -30 -1 c-17 0 -33 -4 -37 -7 -8 -8 -7 -409
1 -459 3 -21 4 -38 2 -38 -1 0 -20 35 -41 78 -21 42 -46 88 -55 102 -9 14 -31
50 -47 80 -17 30 -54 96 -83 147 -51 88 -55 91 -92 95 -22 2 -41 1 -42 -2z"/>
<path d="M6670 13512 c-18 -3 -58 -44 -145 -151 l-120 -148 -3 148 -3 149 -38
0 -38 0 0 -300 0 -300 39 0 38 0 0 96 0 96 51 60 52 59 17 -28 c9 -15 29 -50
44 -78 115 -206 115 -205 157 -205 21 0 39 3 39 6 0 3 -47 87 -105 186 l-105
180 74 91 c41 51 84 102 95 113 l20 22 -22 4 c-12 1 -33 2 -47 0z"/>
<path d="M7766 13513 c-71 -18 -146 -100 -171 -186 -65 -224 56 -433 249 -426
81 3 188 61 170 92 -20 35 -25 36 -75 5 -93 -59 -203 -28 -253 70 -37 74 -37
212 1 285 52 102 182 135 259 66 20 -19 21 -19 42 4 l22 23 -23 22 c-47 44
-146 64 -221 45z"/>
<path d="M9121 13500 c-8 -17 -6 -367 3 -429 3 -23 2 -41 -2 -41 -4 0 -24 33
-45 73 -21 39 -56 104 -78 142 -59 101 -90 156 -109 190 -38 71 -43 75 -86 75
l-41 0 1 -297 1 -298 35 0 35 0 0 205 c0 113 -3 224 -6 248 -3 23 -4 42 -3 42
2 0 20 -33 40 -72 20 -40 51 -98 69 -128 35 -59 73 -124 132 -232 37 -68 37
-68 80 -68 l43 0 -2 302 -3 301 -28 1 c-17 1 -32 -5 -36 -14z"/>
<path d="M9391 13511 c-4 -4 -8 -140 -8 -304 l-1 -298 37 3 36 3 0 170 c0 94
-2 205 -5 248 -3 42 -4 77 -3 77 2 0 18 -30 37 -67 19 -38 73 -135 120 -217
47 -82 86 -151 86 -154 0 -2 9 -17 21 -33 17 -24 28 -29 60 -29 l39 0 0 299 0
299 -24 4 c-48 9 -49 2 -48 -199 0 -103 3 -214 5 -247 l5 -59 -47 89 c-26 49
-59 108 -72 130 -13 23 -55 95 -93 162 -64 112 -71 120 -102 124 -19 2 -38 2
-43 -1z"/>
<path d="M10005 13510 c-1 -3 -2 -139 -2 -302 l0 -298 178 0 178 0 -3 28 c-2
15 -4 29 -5 32 0 3 -61 5 -134 5 l-132 0 -3 108 -3 107 48 1 c26 1 78 1 115 1
l66 -1 -1 32 -2 32 -110 1 -110 1 -3 97 -3 97 136 -3 135 -3 0 33 c0 19 -5 32
-12 33 -85 3 -331 3 -333 -1z"/>
<path d="M10989 13500 c-2 -19 2 -44 7 -49 2 -2 41 -3 88 -2 l84 2 0 -218 c0
-120 1 -242 1 -271 l1 -53 38 3 37 3 1 255 c1 140 2 261 3 268 1 9 13 13 34
12 17 -1 57 -2 88 -1 56 1 57 1 55 31 -1 29 -3 30 -46 31 -25 0 -123 1 -218 2
-147 2 -172 0 -173 -13z"/>
<path d="M12358 13512 l-67 -3 0 -301 0 -300 122 4 c140 5 180 18 237 77 51
53 74 124 74 231 -1 65 -6 97 -23 136 -25 57 -85 122 -119 129 -12 2 -26 6
-31 9 -17 11 -126 21 -193 18z m155 -74 c92 -28 139 -115 132 -248 -7 -142
-71 -208 -207 -216 l-68 -4 -1 32 c0 35 0 308 1 396 l0 52 51 0 c29 0 70 -5
92 -12z"/>
<path d="M12959 13512 l-76 -3 1 -297 1 -297 177 -3 177 -2 -3 27 c-2 16 -4
30 -5 33 0 3 -62 5 -136 4 l-136 0 3 109 3 110 110 1 110 1 0 30 0 30 -95 1
c-52 1 -103 2 -113 3 -16 1 -17 11 -15 94 l3 92 65 2 c36 1 95 2 133 2 l67 1
0 33 0 32 -98 0 c-53 0 -131 -1 -173 -3z"/>
<path d="M13934 13511 l-31 -6 1 -295 1 -295 38 -3 37 -3 0 300 c0 165 -3 301
-7 303 -5 2 -22 2 -39 -1z"/>
<path d="M14784 13512 c-21 -3 -21 -6 -21 -303 l0 -300 36 3 36 3 0 179 c0 98
-2 210 -5 247 -3 38 -4 69 -2 69 1 0 16 -28 33 -62 17 -35 36 -72 42 -83 55
-93 100 -171 162 -283 40 -72 40 -72 83 -72 l42 0 0 299 c0 319 1 314 -49 302
l-25 -7 1 -189 c0 -105 3 -215 6 -245 4 -37 3 -50 -4 -40 -10 16 -102 179
-230 406 -42 76 -53 84 -105 76z"/>
<path d="M16175 13510 l-60 -5 -1 -298 -2 -299 122 4 c98 3 130 8 167 26 89
41 138 129 143 251 10 234 -115 342 -369 321z m160 -73 c78 -26 123 -92 130
-194 8 -96 -12 -161 -65 -213 -47 -48 -58 -51 -153 -54 l-59 -1 0 215 c0 118
1 225 1 238 1 22 5 23 59 21 31 -1 71 -7 87 -12z"/>
<path d="M16711 13510 c-5 -3 -8 -139 -8 -302 l0 -298 178 0 179 0 -3 33 -3
32 -137 0 -137 -1 0 108 0 108 63 1 c167 2 161 1 164 35 l3 31 -98 1 c-53 0
-105 1 -114 1 -16 1 -18 13 -18 97 l0 95 118 -1 c64 -1 125 -1 135 -1 14 1 18
8 15 32 l-3 30 -163 2 c-90 1 -167 0 -171 -3z"/>
<path d="M17719 13513 l-36 -4 0 -300 0 -299 39 0 38 0 0 305 c0 168 -1 304
-2 303 -2 -1 -19 -3 -39 -5z"/>
<path d="M17869 13509 c-7 -4 -7 -14 0 -30 5 -13 21 -60 34 -104 21 -68 86
-278 131 -420 12 -38 15 -40 58 -43 l46 -3 38 118 c21 65 38 120 39 123 2 9
107 333 112 347 4 9 -6 13 -34 13 -39 0 -39 0 -57 -57 -10 -32 -30 -98 -46
-148 -35 -112 -65 -216 -81 -275 -11 -43 -12 -44 -21 -20 -5 14 -39 126 -74
250 -35 124 -67 231 -72 239 -8 15 -55 21 -73 10z"/>
<path d="M18479 13512 l-36 -3 1 -297 1 -297 175 -3 176 -2 2 29 c1 16 -3 31
-10 33 -7 2 -70 3 -140 3 l-128 -1 0 108 0 108 68 1 c166 2 157 0 158 35 l1
32 -101 0 c-56 0 -107 0 -113 1 -10 1 -13 27 -13 96 l0 96 133 -2 132 -1 0 32
0 33 -135 1 c-74 1 -151 0 -171 -2z"/>
<path d="M18955 13510 c-1 -3 -3 -139 -3 -302 l-1 -298 40 0 39 0 0 128 0 128
50 1 c59 0 55 4 144 -154 l58 -103 44 0 43 0 -51 88 c-28 48 -62 106 -75 129
l-24 42 40 20 c63 33 86 74 86 153 0 80 -19 112 -86 146 -38 19 -63 22 -173
25 -70 1 -129 0 -131 -3z m258 -73 c33 -11 54 -40 60 -82 10 -77 -40 -122
-138 -125 -116 -3 -105 -15 -105 111 l0 110 78 -2 c42 -1 90 -6 105 -12z"/>
<path d="M5444 13213 l1 -298 38 -3 37 -3 0 300 0 301 -38 0 -39 0 1 -297z"/>
<path d="M17203 13210 l0 -300 170 2 170 3 1 27 c2 33 0 34 -146 33 l-118 -1
0 268 0 268 -38 0 -39 0 0 -300z"/>
<path d="M7048 13153 c-10 -39 0 -43 108 -43 l104 0 0 30 0 30 -104 0 c-90 0
-104 -2 -108 -17z"/>
<path d="M11730 13140 l0 -30 105 0 105 0 0 30 0 30 -105 0 -105 0 0 -30z"/>
<path d="M15548 13145 c-3 -13 -3 -27 0 -30 3 -3 52 -5 108 -5 l103 0 -1 30
-1 30 -102 0 c-101 0 -103 0 -107 -25z"/>
<path d="M4220 12555 l0 -25 7590 0 7590 0 0 25 0 25 -7590 0 -7590 0 0 -25z"/>
<path d="M4418 12225 c-2 -2 -17 -5 -34 -8 -82 -13 -154 -95 -154 -175 0 -91
47 -140 194 -203 43 -19 85 -44 93 -56 14 -21 14 -26 -1 -48 -9 -14 -20 -25
-24 -26 -4 0 -20 -3 -36 -5 -40 -7 -120 14 -152 39 l-26 20 -19 -24 c-11 -13
-28 -35 -38 -49 l-19 -26 42 -27 c69 -44 118 -56 204 -53 84 3 126 19 172 66
36 37 53 90 46 143 -3 23 -5 45 -5 49 -1 4 -15 23 -31 42 -21 23 -61 47 -129
76 -113 47 -135 66 -125 103 10 44 81 52 157 19 50 -22 52 -22 92 31 33 44 33
43 -52 83 -43 21 -144 39 -155 29z"/>
<path d="M5035 12216 c-62 -19 -97 -41 -135 -82 -117 -129 -113 -372 9 -482
14 -13 50 -35 78 -49 92 -43 219 -25 291 40 29 27 28 33 -13 74 l-34 34 -31
-23 c-43 -31 -126 -32 -167 -2 -48 36 -66 78 -69 163 -2 57 1 86 15 116 44 97
141 126 225 69 17 -11 23 -9 52 24 19 20 34 42 34 49 0 14 -77 61 -112 69 -54
11 -106 11 -143 0z"/>
<path d="M6338 12212 c-124 -42 -191 -148 -191 -302 1 -90 5 -114 32 -174 83
-188 361 -211 474 -40 92 140 70 370 -44 468 -66 56 -185 77 -271 48z m172
-139 c50 -54 67 -143 47 -243 -21 -106 -112 -159 -190 -111 -50 31 -71 81 -74
175 -2 85 11 133 49 174 41 43 129 46 168 5z"/>
<path d="M7069 12218 c-170 -35 -250 -217 -196 -445 15 -59 79 -138 137 -167
20 -10 69 -20 112 -23 73 -5 82 -4 140 25 48 24 71 43 95 79 51 75 62 121 60
231 -2 88 -5 105 -32 157 -60 116 -181 171 -316 143z m151 -146 c40 -39 54
-89 53 -182 -2 -114 -47 -180 -125 -185 -92 -6 -141 56 -147 186 -6 143 68
234 168 206 18 -5 41 -16 51 -25z"/>
<path d="M8588 12216 c-126 -33 -201 -146 -202 -306 0 -61 14 -149 25 -156 5
-3 9 -12 9 -19 0 -17 22 -47 68 -91 67 -64 207 -82 300 -39 62 29 99 68 131
135 23 49 26 67 26 165 0 100 -2 115 -28 167 -60 121 -192 179 -329 144z m152
-136 c29 -16 62 -91 65 -151 8 -156 -71 -255 -178 -220 -60 20 -97 95 -97 196
0 159 94 237 210 175z"/>
<path d="M10146 12215 c-20 -7 -36 -11 -36 -9 0 8 -55 -30 -88 -60 -40 -36
-79 -110 -89 -163 -37 -216 67 -384 248 -400 77 -7 149 12 195 51 l38 33 -33
41 c-18 23 -35 42 -37 42 -3 0 -18 -10 -35 -22 -40 -30 -126 -31 -166 -2 -44
32 -69 92 -72 168 -5 162 104 251 230 186 l37 -18 28 36 c16 19 29 42 29 51 0
9 -24 28 -55 44 -63 32 -139 41 -194 22z"/>
<path d="M10735 12220 c-134 -29 -214 -139 -219 -300 -2 -62 16 -156 40 -202
78 -150 316 -184 438 -62 16 16 40 54 55 84 21 46 26 72 27 155 3 114 -14 173
-66 237 -57 68 -181 108 -275 88z m136 -140 c39 -21 63 -88 62 -175 0 -126
-44 -196 -126 -201 -86 -5 -134 53 -144 174 -14 175 82 269 208 202z"/>
<path d="M15620 12220 c-34 -9 -89 -39 -110 -59 -51 -48 -64 -134 -30 -201 24
-47 52 -67 160 -114 47 -21 91 -43 98 -50 24 -24 22 -54 -6 -77 -22 -17 -36
-20 -78 -15 -59 6 -102 21 -126 43 -17 15 -20 14 -39 -8 -12 -13 -28 -35 -37
-48 -15 -23 -15 -25 13 -47 46 -37 129 -64 194 -64 155 0 256 95 237 224 -11
71 -49 106 -164 155 -121 51 -122 52 -127 83 -7 34 23 59 72 60 39 0 112 -25
123 -42 3 -5 22 12 42 39 l37 49 -22 20 c-47 42 -171 69 -237 52z"/>
<path d="M16255 12215 c-138 -41 -215 -148 -220 -305 -2 -58 17 -146 41 -192
74 -144 309 -183 426 -71 l27 26 -38 40 -39 39 -30 -22 c-46 -34 -118 -38
-161 -8 -51 34 -73 79 -79 158 -12 170 98 267 229 200 l37 -18 28 36 c16 19
29 42 29 50 0 8 -22 27 -50 43 -58 33 -139 43 -200 24z"/>
<path d="M18510 12215 c-126 -38 -205 -147 -213 -290 -12 -206 103 -343 286
-343 75 0 129 19 175 61 29 27 28 32 -12 74 l-33 36 -32 -24 c-44 -32 -119
-35 -163 -6 -52 35 -72 81 -75 166 -3 106 30 175 97 203 41 17 82 14 130 -11
l36 -18 29 35 c17 20 30 42 30 51 0 9 -24 28 -55 43 -61 32 -142 41 -200 23z"/>
<path d="M5463 11902 l0 -313 71 3 71 3 0 128 -1 127 108 0 108 0 0 -130 0
-130 73 0 72 0 -2 307 c-1 170 -2 310 -2 313 -1 3 -31 5 -68 5 l-68 0 -5 -120
-5 -120 -102 0 c-62 -1 -104 3 -106 10 -2 5 -3 58 -2 118 1 68 -3 107 -9 108
-6 1 -38 2 -72 3 l-61 1 0 -313z"/>
<path d="M7604 11905 l1 -310 193 -3 192 -2 0 59 0 60 -120 -2 c-100 -2 -120
0 -121 13 -1 8 -2 123 -3 255 l-1 239 -71 1 -71 1 1 -311z"/>
<path d="M9140 12210 c-5 -3 -9 -144 -9 -313 l0 -307 68 0 c46 0 70 4 73 13 2
6 3 60 3 120 l-1 107 40 1 c23 0 71 0 109 -1 l67 -1 0 60 c0 60 -1 61 -27 62
-16 0 -64 1 -108 2 l-80 2 0 67 c0 38 4 69 10 71 5 2 63 3 127 2 l117 -1 -2
60 -2 61 -188 0 c-104 0 -192 -2 -197 -5z"/>
<path d="M11255 12210 c-2 -4 -4 -144 -4 -313 l1 -307 64 0 c44 0 64 4 65 13
7 82 -4 344 -17 417 -2 14 18 -38 45 -115 27 -77 59 -168 72 -203 l22 -62 40
2 c40 3 41 5 64 63 13 33 42 114 65 180 37 110 67 183 54 130 -14 -54 -21
-229 -17 -392 l1 -33 63 0 63 0 1 310 c0 171 -3 310 -6 311 -3 1 -38 2 -78 3
l-72 1 -15 -40 c-45 -124 -86 -246 -97 -288 -11 -45 -28 -71 -30 -48 -2 14 -6
29 -9 36 -1 3 -3 8 -4 13 -2 13 -109 317 -113 322 -6 6 -154 6 -158 0z"/>
<path d="M12061 12211 c-5 -3 -9 -144 -10 -313 l-1 -308 70 0 c39 0 71 4 71
10 1 6 2 50 3 99 0 49 4 92 8 96 3 4 39 8 80 9 142 5 224 74 231 194 5 76 -19
137 -68 170 -18 13 -37 24 -42 24 -4 0 -17 5 -27 10 -20 11 -299 18 -315 9z
m258 -116 c36 -9 55 -34 57 -74 3 -75 -31 -104 -123 -105 l-58 -1 -1 85 c0 47
3 90 8 96 7 10 70 10 117 -1z"/>
<path d="M12683 11990 c2 -129 9 -240 16 -261 6 -20 28 -56 49 -79 32 -36 48
-45 106 -60 113 -28 216 1 269 77 43 60 53 132 53 353 l-1 195 -67 0 -68 0 -1
-202 c-1 -112 -3 -207 -4 -213 -1 -5 -3 -16 -4 -24 -2 -31 -46 -66 -88 -72
-50 -7 -77 6 -100 49 -15 27 -18 64 -19 247 l-1 215 -72 0 -73 0 5 -225z"/>
<path d="M13341 12210 c-6 -4 -7 -87 -2 -110 0 -3 35 -5 76 -5 42 1 79 -2 83
-5 4 -3 8 -115 7 -250 l0 -245 72 -3 72 -3 0 193 c0 106 0 220 0 254 l1 60 85
-1 86 -1 -3 60 -3 61 -233 0 c-129 0 -237 -2 -241 -5z"/>
<path d="M13984 11905 l1 -310 200 0 199 0 1 45 c2 72 7 70 -134 70 l-126 0
-1 70 0 70 31 1 c16 1 65 1 107 0 l78 0 -2 60 -2 59 -106 0 -106 0 0 60 c0 34
5 61 11 61 5 1 58 2 117 3 58 0 110 5 114 9 5 4 9 30 10 57 1 39 -2 50 -15 51
-9 1 -97 2 -197 3 l-181 1 1 -310z"/>
<path d="M14566 12211 c-2 -4 -3 -143 -2 -311 l1 -305 70 0 70 0 1 103 c1 56
2 106 3 111 1 8 67 8 75 0 2 -2 29 -51 60 -109 l55 -105 81 -3 81 -3 -24 43
c-14 24 -45 79 -70 122 l-46 80 43 37 c114 100 76 291 -66 330 -43 12 -327 20
-332 10z m262 -114 c50 -8 72 -54 55 -116 -8 -33 -67 -57 -129 -53 l-49 4 0
79 c0 53 4 82 13 88 11 7 58 6 110 -2z"/>
<path d="M16690 12210 c-4 -3 -7 -142 -6 -310 l1 -305 70 0 70 0 0 311 0 310
-63 0 c-35 -1 -67 -3 -72 -6z"/>
<path d="M17040 12210 c-4 -3 -8 -143 -8 -313 l-1 -307 199 0 c149 0 199 3
202 13 2 6 3 32 3 57 l0 45 -55 2 c-30 1 -89 2 -131 2 l-75 1 0 70 c0 66 2 70
23 71 13 0 61 1 107 1 l83 1 1 58 0 59 -107 0 -107 0 0 62 1 63 125 0 124 0 1
53 c0 29 -2 56 -5 60 -6 8 -366 10 -380 2z"/>
<path d="M17629 12216 c-1 -1 -3 -142 -4 -313 l-3 -313 68 0 68 0 -3 193 c-2
105 -6 205 -10 222 -3 16 44 -71 106 -193 l113 -222 73 0 c51 0 73 4 74 13 0
6 1 147 2 312 l2 300 -65 0 -65 0 0 -185 c0 -102 3 -202 7 -223 4 -23 -35 44
-104 180 -60 120 -112 220 -114 222 -3 4 -139 10 -145 7z"/>
<path d="M18945 12210 c-1 -3 -2 -143 -2 -313 l0 -307 201 2 201 3 0 55 0 55
-128 0 c-77 0 -127 4 -128 10 -1 6 -2 38 -3 73 l-2 62 75 1 c149 2 136 -4 138
62 l2 57 -107 0 -108 0 2 58 c1 31 2 59 3 62 0 3 56 6 124 5 l123 -1 0 58 c0
33 -5 59 -11 59 -34 4 -377 3 -380 -1z"/>
</g>
</svg>
